<?xml version="1.0" encoding="utf-8"?><svg xmlns="http://www.w3.org/2000/svg" xmlns:xlink="http://www.w3.org/1999/xlink" width="1687" height="1968.73" viewBox="0 0 1687 1968.73" style="fill: #000000"><rect x="50.62" y="50.62" width="1591.51" height="1591.51" fill="#ffffff" fill-opacity="1" /><g transform="scale(70.29) translate(0 0)"><path d="M22.7,0H1.3C0.6,0,0,0.6,0,1.3v25.3C0,27.4,0.6,28,1.3,28h21.3c0.7,0,1.3-0.6,1.3-1.3V1.3C24,0.6,23.4,0,22.7,0 z M23,22c0,0.6-0.5,1-1,1H2c-0.6,0-1-0.5-1-1V2c0-0.6,0.5-1,1-1h20c0.6,0,1,0.5,1,1V22z" />
                            
                        </g><g transform="scale(0.85) translate(146.70 146.70)"><svg xmlns="http://www.w3.org/2000/svg" version="1.1" width="1687" height="1687" viewBox="0 0 1687 1687"><g transform="scale(58.172)"><g transform="translate(0,0)"><path d="M8 0.45L8 0.55A0.45 0.45 0 0 0 8.45 1L9.55 1A0.45 0.45 0 0 0 10 0.55L10 0.45A0.45 0.45 0 0 0 9.55 0L8.45 0A0.45 0.45 0 0 0 8 0.45ZM11 0.45L11 0.55A0.45 0.45 0 0 0 11.45 1L11.55 1A0.45 0.45 0 0 0 12 0.55L12 0.45A0.45 0.45 0 0 0 11.55 0L11.45 0A0.45 0.45 0 0 0 11 0.45ZM14 0.45L14 0.55A0.45 0.45 0 0 1 13.55 1L13.45 1A0.45 0.45 0 0 0 13 1.45L13 1.55A0.45 0.45 0 0 0 13.45 2L15.55 2A0.45 0.45 0 0 1 16 2.45L16 2.55A0.45 0.45 0 0 1 15.55 3L15.45 3A0.45 0.45 0 0 0 15 3.45L15 4.55A0.45 0.45 0 0 1 14.55 5L13.45 5A0.45 0.45 0 0 1 13 4.55L13 4.45A0.45 0.45 0 0 1 13.45 4L13.55 4A0.45 0.45 0 0 0 14 3.55L14 3.45A0.45 0.45 0 0 0 13.55 3L12.45 3A0.45 0.45 0 0 0 12 3.45L12 6.55A0.45 0.45 0 0 1 11.55 7L11.45 7A0.45 0.45 0 0 1 11 6.55L11 5.45A0.45 0.45 0 0 0 10.55 5L10.45 5A0.45 0.45 0 0 1 10 4.55L10 4.45A0.45 0.45 0 0 1 10.45 4L10.55 4A0.45 0.45 0 0 0 11 3.55L11 2.45A0.45 0.45 0 0 0 10.55 2L10.45 2A0.45 0.45 0 0 0 10 2.45L10 3.55A0.45 0.45 0 0 1 9.55 4L9.45 4A0.45 0.45 0 0 1 9 3.55L9 3.45A0.45 0.45 0 0 0 8.55 3L8.45 3A0.45 0.45 0 0 0 8 3.45L8 3.55A0.45 0.45 0 0 0 8.45 4L8.55 4A0.45 0.45 0 0 1 9 4.45L9 4.55A0.45 0.45 0 0 0 9.45 5L9.55 5A0.45 0.45 0 0 1 10 5.45L10 6.55A0.45 0.45 0 0 0 10.45 7L10.55 7A0.45 0.45 0 0 1 11 7.45L11 7.55A0.45 0.45 0 0 0 11.45 8L12.55 8A0.45 0.45 0 0 1 13 8.45L13 8.55A0.45 0.45 0 0 1 12.55 9L10.45 9A0.45 0.45 0 0 0 10 9.45L10 9.55A0.45 0.45 0 0 1 9.55 10L9.45 10A0.45 0.45 0 0 0 9 10.45L9 12.55A0.45 0.45 0 0 0 9.45 13L9.55 13A0.45 0.45 0 0 0 10 12.55L10 12.45A0.45 0.45 0 0 1 10.45 12L10.55 12A0.45 0.45 0 0 1 11 12.45L11 12.55A0.45 0.45 0 0 0 11.45 13L11.55 13A0.45 0.45 0 0 1 12 13.45L12 13.55A0.45 0.45 0 0 0 12.45 14L13.55 14A0.45 0.45 0 0 1 14 14.45L14 14.55A0.45 0.45 0 0 1 13.55 15L11.45 15A0.45 0.45 0 0 1 11 14.55L11 14.45A0.45 0.45 0 0 0 10.55 14L8.45 14A0.45 0.45 0 0 0 8 14.45L8 14.55A0.45 0.45 0 0 1 7.55 15L7.45 15A0.45 0.45 0 0 1 7 14.55L7 14.45A0.45 0.45 0 0 0 6.55 14L6.45 14A0.45 0.45 0 0 1 6 13.55L6 13.45A0.45 0.45 0 0 1 6.45 13L7.55 13A0.45 0.45 0 0 0 8 12.55L8 12.45A0.45 0.45 0 0 0 7.55 12L6.45 12A0.45 0.45 0 0 0 6 12.45L6 12.55A0.45 0.45 0 0 1 5.55 13L5.45 13A0.45 0.45 0 0 1 5 12.55L5 11.45A0.45 0.45 0 0 1 5.45 11L7.55 11A0.45 0.45 0 0 0 8 10.55L8 9.45A0.45 0.45 0 0 1 8.45 9L8.55 9A0.45 0.45 0 0 0 9 8.55L9 8.45A0.45 0.45 0 0 0 8.55 8L8.45 8A0.45 0.45 0 0 0 8 8.45L8 8.55A0.45 0.45 0 0 1 7.55 9L7.45 9A0.45 0.45 0 0 1 7 8.55L7 8.45A0.45 0.45 0 0 0 6.55 8L4.45 8A0.45 0.45 0 0 0 4 8.45L4 8.55A0.45 0.45 0 0 0 4.45 9L6.55 9A0.45 0.45 0 0 1 7 9.45L7 9.55A0.45 0.45 0 0 1 6.55 10L3.45 10A0.45 0.45 0 0 0 3 10.45L3 10.55A0.45 0.45 0 0 1 2.55 11L2.45 11A0.45 0.45 0 0 1 2 10.55L2 10.45A0.45 0.45 0 0 0 1.55 10L1.45 10A0.45 0.45 0 0 1 1 9.55L1 9.45A0.45 0.45 0 0 0 0.55 9L0.45 9A0.45 0.45 0 0 0 0 9.45L0 9.55A0.45 0.45 0 0 0 0.45 10L0.55 10A0.45 0.45 0 0 1 1 10.45L1 11.55A0.45 0.45 0 0 1 0.55 12L0.45 12A0.45 0.45 0 0 0 0 12.45L0 13.55A0.45 0.45 0 0 0 0.45 14L0.55 14A0.45 0.45 0 0 0 1 13.55L1 12.45A0.45 0.45 0 0 1 1.45 12L1.55 12A0.45 0.45 0 0 1 2 12.45L2 12.55A0.45 0.45 0 0 0 2.45 13L4.55 13A0.45 0.45 0 0 1 5 13.45L5 14.55A0.45 0.45 0 0 1 4.55 15L4.45 15A0.45 0.45 0 0 1 4 14.55L4 14.45A0.45 0.45 0 0 0 3.55 14L2.45 14A0.45 0.45 0 0 0 2 14.45L2 14.55A0.45 0.45 0 0 0 2.45 15L3.55 15A0.45 0.45 0 0 1 4 15.45L4 15.55A0.45 0.45 0 0 1 3.55 16L2.45 16A0.45 0.45 0 0 0 2 16.45L2 16.55A0.45 0.45 0 0 0 2.45 17L2.55 17A0.45 0.45 0 0 1 3 17.45L3 17.55A0.45 0.45 0 0 1 2.55 18L2.45 18A0.45 0.45 0 0 0 2 18.45L2 18.55A0.45 0.45 0 0 1 1.55 19L1.45 19A0.45 0.45 0 0 1 1 18.55L1 18.45A0.45 0.45 0 0 0 0.55 18L0.45 18A0.45 0.45 0 0 0 0 18.45L0 18.55A0.45 0.45 0 0 0 0.45 19L0.55 19A0.45 0.45 0 0 1 1 19.45L1 19.55A0.45 0.45 0 0 1 0.55 20L0.45 20A0.45 0.45 0 0 0 0 20.45L0 20.55A0.45 0.45 0 0 0 0.45 21L0.55 21A0.45 0.45 0 0 0 1 20.55L1 20.45A0.45 0.45 0 0 1 1.45 20L1.55 20A0.45 0.45 0 0 1 2 20.45L2 20.55A0.45 0.45 0 0 0 2.45 21L2.55 21A0.45 0.45 0 0 0 3 20.55L3 20.45A0.45 0.45 0 0 0 2.55 20L2.45 20A0.45 0.45 0 0 1 2 19.55L2 19.45A0.45 0.45 0 0 1 2.45 19L4.55 19A0.45 0.45 0 0 1 5 19.45L5 20.55A0.45 0.45 0 0 0 5.45 21L7.55 21A0.45 0.45 0 0 1 8 21.45L8 21.55A0.45 0.45 0 0 0 8.45 22L8.55 22A0.45 0.45 0 0 1 9 22.45L9 22.55A0.45 0.45 0 0 1 8.55 23L8.45 23A0.45 0.45 0 0 0 8 23.45L8 24.55A0.45 0.45 0 0 0 8.45 25L8.55 25A0.45 0.45 0 0 1 9 25.45L9 25.55A0.45 0.45 0 0 1 8.55 26L8.45 26A0.45 0.45 0 0 0 8 26.45L8 26.55A0.45 0.45 0 0 0 8.45 27L10.55 27A0.45 0.45 0 0 0 11 26.55L11 26.45A0.45 0.45 0 0 0 10.55 26L10.45 26A0.45 0.45 0 0 1 10 25.55L10 24.45A0.45 0.45 0 0 1 10.45 24L11.55 24A0.45 0.45 0 0 1 12 24.45L12 26.55A0.45 0.45 0 0 0 12.45 27L12.55 27A0.45 0.45 0 0 1 13 27.45L13 27.55A0.45 0.45 0 0 1 12.55 28L12.45 28A0.45 0.45 0 0 0 12 28.45L12 28.55A0.45 0.45 0 0 0 12.45 29L12.55 29A0.45 0.45 0 0 0 13 28.55L13 28.45A0.45 0.45 0 0 1 13.45 28L13.55 28A0.45 0.45 0 0 1 14 28.45L14 28.55A0.45 0.45 0 0 0 14.45 29L14.55 29A0.45 0.45 0 0 0 15 28.55L15 28.45A0.45 0.45 0 0 1 15.45 28L15.55 28A0.45 0.45 0 0 0 16 27.55L16 27.45A0.45 0.45 0 0 1 16.45 27L17.55 27A0.45 0.45 0 0 1 18 27.45L18 27.55A0.45 0.45 0 0 1 17.55 28L17.45 28A0.45 0.45 0 0 0 17 28.45L17 28.55A0.45 0.45 0 0 0 17.45 29L17.55 29A0.45 0.45 0 0 0 18 28.55L18 28.45A0.45 0.45 0 0 1 18.45 28L19.55 28A0.45 0.45 0 0 1 20 28.45L20 28.55A0.45 0.45 0 0 0 20.45 29L20.55 29A0.45 0.45 0 0 0 21 28.55L21 28.45A0.45 0.45 0 0 1 21.45 28L21.55 28A0.45 0.45 0 0 1 22 28.45L22 28.55A0.45 0.45 0 0 0 22.45 29L24.55 29A0.45 0.45 0 0 0 25 28.55L25 26.45A0.45 0.45 0 0 1 25.45 26L25.55 26A0.45 0.45 0 0 0 26 25.55L26 25.45A0.45 0.45 0 0 1 26.45 25L28.55 25A0.45 0.45 0 0 0 29 24.55L29 23.45A0.45 0.45 0 0 0 28.55 23L28.45 23A0.45 0.45 0 0 1 28 22.55L28 22.45A0.45 0.45 0 0 1 28.45 22L28.55 22A0.45 0.45 0 0 0 29 21.55L29 21.45A0.45 0.45 0 0 0 28.55 21L28.45 21A0.45 0.45 0 0 0 28 21.45L28 21.55A0.45 0.45 0 0 1 27.55 22L27.45 22A0.45 0.45 0 0 0 27 22.45L27 23.55A0.45 0.45 0 0 1 26.55 24L26.45 24A0.45 0.45 0 0 0 26 24.45L26 24.55A0.45 0.45 0 0 1 25.55 25L25.45 25A0.45 0.45 0 0 1 25 24.55L25 23.45A0.45 0.45 0 0 1 25.45 23L25.55 23A0.45 0.45 0 0 0 26 22.55L26 22.45A0.45 0.45 0 0 0 25.55 22L25.45 22A0.45 0.45 0 0 1 25 21.55L25 21.45A0.45 0.45 0 0 1 25.45 21L26.55 21A0.45 0.45 0 0 0 27 20.55L27 20.45A0.45 0.45 0 0 1 27.45 20L28.55 20A0.45 0.45 0 0 0 29 19.55L29 18.45A0.45 0.45 0 0 0 28.55 18L28.45 18A0.45 0.45 0 0 1 28 17.55L28 17.45A0.45 0.45 0 0 1 28.45 17L28.55 17A0.45 0.45 0 0 0 29 16.55L29 12.45A0.45 0.45 0 0 0 28.55 12L28.45 12A0.45 0.45 0 0 0 28 12.45L28 13.55A0.45 0.45 0 0 1 27.55 14L27.45 14A0.45 0.45 0 0 0 27 14.45L27 14.55A0.45 0.45 0 0 1 26.55 15L25.45 15A0.45 0.45 0 0 0 25 15.45L25 15.55A0.45 0.45 0 0 0 25.45 16L25.55 16A0.45 0.45 0 0 1 26 16.45L26 16.55A0.45 0.45 0 0 0 26.45 17L26.55 17A0.45 0.45 0 0 1 27 17.45L27 19.55A0.45 0.45 0 0 1 26.55 20L23.45 20A0.45 0.45 0 0 1 23 19.55L23 18.45A0.45 0.45 0 0 1 23.45 18L23.55 18A0.45 0.45 0 0 0 24 17.55L24 16.45A0.45 0.45 0 0 0 23.55 16L23.45 16A0.45 0.45 0 0 1 23 15.55L23 15.45A0.45 0.45 0 0 1 23.45 15L23.55 15A0.45 0.45 0 0 0 24 14.55L24 13.45A0.45 0.45 0 0 1 24.45 13L24.55 13A0.45 0.45 0 0 0 25 12.55L25 12.45A0.45 0.45 0 0 0 24.55 12L24.45 12A0.45 0.45 0 0 0 24 12.45L24 12.55A0.45 0.45 0 0 1 23.55 13L23.45 13A0.45 0.45 0 0 1 23 12.55L23 9.45A0.45 0.45 0 0 0 22.55 9L22.45 9A0.45 0.45 0 0 1 22 8.55L22 8.45A0.45 0.45 0 0 0 21.55 8L21.45 8A0.45 0.45 0 0 1 21 7.55L21 6.45A0.45 0.45 0 0 0 20.55 6L20.45 6A0.45 0.45 0 0 1 20 5.55L20 4.45A0.45 0.45 0 0 1 20.45 4L20.55 4A0.45 0.45 0 0 0 21 3.55L21 3.45A0.45 0.45 0 0 0 20.55 3L20.45 3A0.45 0.45 0 0 1 20 2.55L20 2.45A0.45 0.45 0 0 0 19.55 2L19.45 2A0.45 0.45 0 0 1 19 1.55L19 0.45A0.45 0.45 0 0 0 18.55 0L18.45 0A0.45 0.45 0 0 0 18 0.45L18 1.55A0.45 0.45 0 0 1 17.55 2L17.45 2A0.45 0.45 0 0 1 17 1.55L17 0.45A0.45 0.45 0 0 0 16.55 0L14.45 0A0.45 0.45 0 0 0 14 0.45ZM17 3.45L17 4.55A0.45 0.45 0 0 0 17.45 5L17.55 5A0.45 0.45 0 0 1 18 5.45L18 5.55A0.45 0.45 0 0 1 17.55 6L17.45 6A0.45 0.45 0 0 0 17 6.45L17 6.55A0.45 0.45 0 0 1 16.55 7L16.45 7A0.45 0.45 0 0 1 16 6.55L16 6.45A0.45 0.45 0 0 0 15.55 6L15.45 6A0.45 0.45 0 0 0 15 6.45L15 6.55A0.45 0.45 0 0 1 14.55 7L14.45 7A0.45 0.45 0 0 1 14 6.55L14 6.45A0.45 0.45 0 0 0 13.55 6L13.45 6A0.45 0.45 0 0 0 13 6.45L13 7.55A0.45 0.45 0 0 0 13.45 8L13.55 8A0.45 0.45 0 0 1 14 8.45L14 8.55A0.45 0.45 0 0 0 14.45 9L14.55 9A0.45 0.45 0 0 0 15 8.55L15 7.45A0.45 0.45 0 0 1 15.45 7L15.55 7A0.45 0.45 0 0 1 16 7.45L16 9.55A0.45 0.45 0 0 1 15.55 10L13.45 10A0.45 0.45 0 0 0 13 10.45L13 10.55A0.45 0.45 0 0 0 13.45 11L15.55 11A0.45 0.45 0 0 1 16 11.45L16 11.55A0.45 0.45 0 0 0 16.45 12L16.55 12A0.45 0.45 0 0 1 17 12.45L17 12.55A0.45 0.45 0 0 1 16.55 13L16.45 13A0.45 0.45 0 0 0 16 13.45L16 13.55A0.45 0.45 0 0 0 16.45 14L19.55 14A0.45 0.45 0 0 0 20 13.55L20 13.45A0.45 0.45 0 0 1 20.45 13L20.55 13A0.45 0.45 0 0 1 21 13.45L21 13.55A0.45 0.45 0 0 0 21.45 14L21.55 14A0.45 0.45 0 0 0 22 13.55L22 11.45A0.45 0.45 0 0 0 21.55 11L21.45 11A0.45 0.45 0 0 1 21 10.55L21 10.45A0.45 0.45 0 0 1 21.45 10L21.55 10A0.45 0.45 0 0 0 22 9.55L22 9.45A0.45 0.45 0 0 0 21.55 9L21.45 9A0.45 0.45 0 0 1 21 8.55L21 8.45A0.45 0.45 0 0 0 20.55 8L20.45 8A0.45 0.45 0 0 1 20 7.55L20 6.45A0.45 0.45 0 0 0 19.55 6L19.45 6A0.45 0.45 0 0 1 19 5.55L19 4.45A0.45 0.45 0 0 1 19.45 4L19.55 4A0.45 0.45 0 0 0 20 3.55L20 3.45A0.45 0.45 0 0 0 19.55 3L19.45 3A0.45 0.45 0 0 0 19 3.45L19 3.55A0.45 0.45 0 0 1 18.55 4L18.45 4A0.45 0.45 0 0 1 18 3.55L18 3.45A0.45 0.45 0 0 0 17.55 3L17.45 3A0.45 0.45 0 0 0 17 3.45ZM8 6.45L8 6.55A0.45 0.45 0 0 0 8.45 7L8.55 7A0.45 0.45 0 0 0 9 6.55L9 6.45A0.45 0.45 0 0 0 8.55 6L8.45 6A0.45 0.45 0 0 0 8 6.45ZM18 6.45L18 6.55A0.45 0.45 0 0 1 17.55 7L17.45 7A0.45 0.45 0 0 0 17 7.45L17 7.55A0.45 0.45 0 0 0 17.45 8L17.55 8A0.45 0.45 0 0 1 18 8.45L18 9.55A0.45 0.45 0 0 0 18.45 10L19.55 10A0.45 0.45 0 0 0 20 9.55L20 9.45A0.45 0.45 0 0 0 19.55 9L19.45 9A0.45 0.45 0 0 1 19 8.55L19 6.45A0.45 0.45 0 0 0 18.55 6L18.45 6A0.45 0.45 0 0 0 18 6.45ZM2 8.45L2 8.55A0.45 0.45 0 0 0 2.45 9L2.55 9A0.45 0.45 0 0 0 3 8.55L3 8.45A0.45 0.45 0 0 0 2.55 8L2.45 8A0.45 0.45 0 0 0 2 8.45ZM25 8.45L25 8.55A0.45 0.45 0 0 1 24.55 9L24.45 9A0.45 0.45 0 0 0 24 9.45L24 9.55A0.45 0.45 0 0 0 24.45 10L24.55 10A0.45 0.45 0 0 0 25 9.55L25 9.45A0.45 0.45 0 0 1 25.45 9L25.55 9A0.45 0.45 0 0 0 26 8.55L26 8.45A0.45 0.45 0 0 0 25.55 8L25.45 8A0.45 0.45 0 0 0 25 8.45ZM28 8.45L28 8.55A0.45 0.45 0 0 1 27.55 9L27.45 9A0.45 0.45 0 0 0 27 9.45L27 9.55A0.45 0.45 0 0 0 27.45 10L27.55 10A0.45 0.45 0 0 1 28 10.45L28 10.55A0.45 0.45 0 0 0 28.45 11L28.55 11A0.45 0.45 0 0 0 29 10.55L29 8.45A0.45 0.45 0 0 0 28.55 8L28.45 8A0.45 0.45 0 0 0 28 8.45ZM16 10.45L16 10.55A0.45 0.45 0 0 0 16.45 11L16.55 11A0.45 0.45 0 0 0 17 10.55L17 10.45A0.45 0.45 0 0 0 16.55 10L16.45 10A0.45 0.45 0 0 0 16 10.45ZM11 11.45L11 11.55A0.45 0.45 0 0 0 11.45 12L11.55 12A0.45 0.45 0 0 1 12 12.45L12 12.55A0.45 0.45 0 0 0 12.45 13L12.55 13A0.45 0.45 0 0 0 13 12.55L13 12.45A0.45 0.45 0 0 0 12.55 12L12.45 12A0.45 0.45 0 0 1 12 11.55L12 11.45A0.45 0.45 0 0 0 11.55 11L11.45 11A0.45 0.45 0 0 0 11 11.45ZM19 11.45L19 11.55A0.45 0.45 0 0 1 18.55 12L18.45 12A0.45 0.45 0 0 0 18 12.45L18 12.55A0.45 0.45 0 0 0 18.45 13L18.55 13A0.45 0.45 0 0 0 19 12.55L19 12.45A0.45 0.45 0 0 1 19.45 12L19.55 12A0.45 0.45 0 0 0 20 11.55L20 11.45A0.45 0.45 0 0 0 19.55 11L19.45 11A0.45 0.45 0 0 0 19 11.45ZM26 11.45L26 12.55A0.45 0.45 0 0 0 26.45 13L26.55 13A0.45 0.45 0 0 0 27 12.55L27 11.45A0.45 0.45 0 0 0 26.55 11L26.45 11A0.45 0.45 0 0 0 26 11.45ZM0 15.45L0 15.55A0.45 0.45 0 0 0 0.45 16L0.55 16A0.45 0.45 0 0 0 1 15.55L1 15.45A0.45 0.45 0 0 0 0.55 15L0.45 15A0.45 0.45 0 0 0 0 15.45ZM5 15.45L5 15.55A0.45 0.45 0 0 1 4.55 16L4.45 16A0.45 0.45 0 0 0 4 16.45L4 16.55A0.45 0.45 0 0 0 4.45 17L4.55 17A0.45 0.45 0 0 0 5 16.55L5 16.45A0.45 0.45 0 0 1 5.45 16L6.55 16A0.45 0.45 0 0 0 7 15.55L7 15.45A0.45 0.45 0 0 0 6.55 15L5.45 15A0.45 0.45 0 0 0 5 15.45ZM8 15.45L8 15.55A0.45 0.45 0 0 0 8.45 16L8.55 16A0.45 0.45 0 0 1 9 16.45L9 17.55A0.45 0.45 0 0 1 8.55 18L8.45 18A0.45 0.45 0 0 1 8 17.55L8 17.45A0.45 0.45 0 0 0 7.55 17L6.45 17A0.45 0.45 0 0 0 6 17.45L6 17.55A0.45 0.45 0 0 1 5.55 18L5.45 18A0.45 0.45 0 0 0 5 18.45L5 18.55A0.45 0.45 0 0 0 5.45 19L5.55 19A0.45 0.45 0 0 1 6 19.45L6 19.55A0.45 0.45 0 0 0 6.45 20L6.55 20A0.45 0.45 0 0 0 7 19.55L7 19.45A0.45 0.45 0 0 0 6.55 19L6.45 19A0.45 0.45 0 0 1 6 18.55L6 18.45A0.45 0.45 0 0 1 6.45 18L7.55 18A0.45 0.45 0 0 1 8 18.45L8 20.55A0.45 0.45 0 0 0 8.45 21L8.55 21A0.45 0.45 0 0 1 9 21.45L9 21.55A0.45 0.45 0 0 0 9.45 22L9.55 22A0.45 0.45 0 0 1 10 22.45L10 22.55A0.45 0.45 0 0 1 9.55 23L9.45 23A0.45 0.45 0 0 0 9 23.45L9 23.55A0.45 0.45 0 0 0 9.45 24L9.55 24A0.45 0.45 0 0 0 10 23.55L10 23.45A0.45 0.45 0 0 1 10.45 23L10.55 23A0.45 0.45 0 0 0 11 22.55L11 22.45A0.45 0.45 0 0 1 11.45 22L11.55 22A0.45 0.45 0 0 1 12 22.45L12 23.55A0.45 0.45 0 0 0 12.45 24L12.55 24A0.45 0.45 0 0 1 13 24.45L13 24.55A0.45 0.45 0 0 0 13.45 25L14.55 25A0.45 0.45 0 0 0 15 24.55L15 24.45A0.45 0.45 0 0 1 15.45 24L16.55 24A0.45 0.45 0 0 0 17 23.55L17 22.45A0.45 0.45 0 0 1 17.45 22L19.55 22A0.45 0.45 0 0 0 20 21.55L20 21.45A0.45 0.45 0 0 0 19.55 21L19.45 21A0.45 0.45 0 0 1 19 20.55L19 20.45A0.45 0.45 0 0 1 19.45 20L19.55 20A0.45 0.45 0 0 0 20 19.55L20 19.45A0.45 0.45 0 0 0 19.55 19L19.45 19A0.45 0.45 0 0 1 19 18.55L19 17.45A0.45 0.45 0 0 1 19.45 17L19.55 17A0.45 0.45 0 0 0 20 16.55L20 16.45A0.45 0.45 0 0 1 20.45 16L20.55 16A0.45 0.45 0 0 0 21 15.55L21 15.45A0.45 0.45 0 0 0 20.55 15L19.45 15A0.45 0.45 0 0 0 19 15.45L19 15.55A0.45 0.45 0 0 1 18.55 16L18.45 16A0.45 0.45 0 0 0 18 16.45L18 16.55A0.45 0.45 0 0 1 17.55 17L17.45 17A0.45 0.45 0 0 1 17 16.55L17 15.45A0.45 0.45 0 0 0 16.55 15L16.45 15A0.45 0.45 0 0 0 16 15.45L16 15.55A0.45 0.45 0 0 1 15.55 16L15.45 16A0.45 0.45 0 0 1 15 15.55L15 15.45A0.45 0.45 0 0 0 14.55 15L14.45 15A0.45 0.45 0 0 0 14 15.45L14 16.55A0.45 0.45 0 0 0 14.45 17L14.55 17A0.45 0.45 0 0 1 15 17.45L15 17.55A0.45 0.45 0 0 1 14.55 18L14.45 18A0.45 0.45 0 0 0 14 18.45L14 18.55A0.45 0.45 0 0 1 13.55 19L13.45 19A0.45 0.45 0 0 1 13 18.55L13 17.45A0.45 0.45 0 0 0 12.55 17L10.45 17A0.45 0.45 0 0 1 10 16.55L10 16.45A0.45 0.45 0 0 1 10.45 16L10.55 16A0.45 0.45 0 0 0 11 15.55L11 15.45A0.45 0.45 0 0 0 10.55 15L10.45 15A0.45 0.45 0 0 0 10 15.45L10 15.55A0.45 0.45 0 0 1 9.55 16L9.45 16A0.45 0.45 0 0 1 9 15.55L9 15.45A0.45 0.45 0 0 0 8.55 15L8.45 15A0.45 0.45 0 0 0 8 15.45ZM22 16.45L22 16.55A0.45 0.45 0 0 1 21.55 17L21.45 17A0.45 0.45 0 0 0 21 17.45L21 19.55A0.45 0.45 0 0 0 21.45 20L21.55 20A0.45 0.45 0 0 0 22 19.55L22 18.45A0.45 0.45 0 0 1 22.45 18L22.55 18A0.45 0.45 0 0 0 23 17.55L23 16.45A0.45 0.45 0 0 0 22.55 16L22.45 16A0.45 0.45 0 0 0 22 16.45ZM9 18.45L9 20.55A0.45 0.45 0 0 0 9.45 21L11.55 21A0.45 0.45 0 0 1 12 21.45L12 21.55A0.45 0.45 0 0 0 12.45 22L13.55 22A0.45 0.45 0 0 1 14 22.45L14 23.55A0.45 0.45 0 0 0 14.45 24L14.55 24A0.45 0.45 0 0 0 15 23.55L15 23.45A0.45 0.45 0 0 1 15.45 23L15.55 23A0.45 0.45 0 0 0 16 22.55L16 22.45A0.45 0.45 0 0 1 16.45 22L16.55 22A0.45 0.45 0 0 0 17 21.55L17 21.45A0.45 0.45 0 0 1 17.45 21L17.55 21A0.45 0.45 0 0 0 18 20.55L18 20.45A0.45 0.45 0 0 1 18.45 20L18.55 20A0.45 0.45 0 0 0 19 19.55L19 19.45A0.45 0.45 0 0 0 18.55 19L16.45 19A0.45 0.45 0 0 1 16 18.55L16 18.45A0.45 0.45 0 0 0 15.55 18L15.45 18A0.45 0.45 0 0 0 15 18.45L15 18.55A0.45 0.45 0 0 1 14.55 19L14.45 19A0.45 0.45 0 0 0 14 19.45L14 19.55A0.45 0.45 0 0 0 14.45 20L14.55 20A0.45 0.45 0 0 0 15 19.55L15 19.45A0.45 0.45 0 0 1 15.45 19L15.55 19A0.45 0.45 0 0 1 16 19.45L16 19.55A0.45 0.45 0 0 0 16.45 20L16.55 20A0.45 0.45 0 0 1 17 20.45L17 20.55A0.45 0.45 0 0 1 16.55 21L16.45 21A0.45 0.45 0 0 0 16 21.45L16 21.55A0.45 0.45 0 0 1 15.55 22L14.45 22A0.45 0.45 0 0 1 14 21.55L14 21.45A0.45 0.45 0 0 0 13.55 21L13.45 21A0.45 0.45 0 0 1 13 20.55L13 19.45A0.45 0.45 0 0 0 12.55 19L11.45 19A0.45 0.45 0 0 0 11 19.45L11 19.55A0.45 0.45 0 0 1 10.55 20L10.45 20A0.45 0.45 0 0 1 10 19.55L10 18.45A0.45 0.45 0 0 0 9.55 18L9.45 18A0.45 0.45 0 0 0 9 18.45ZM21 21.45L21 23.55A0.45 0.45 0 0 0 21.45 24L23.55 24A0.45 0.45 0 0 0 24 23.55L24 21.45A0.45 0.45 0 0 0 23.55 21L21.45 21A0.45 0.45 0 0 0 21 21.45ZM22 22.45L22 22.55A0.45 0.45 0 0 0 22.45 23L22.55 23A0.45 0.45 0 0 0 23 22.55L23 22.45A0.45 0.45 0 0 0 22.55 22L22.45 22A0.45 0.45 0 0 0 22 22.45ZM18 23.45L18 25.55A0.45 0.45 0 0 0 18.45 26L18.55 26A0.45 0.45 0 0 1 19 26.45L19 26.55A0.45 0.45 0 0 0 19.45 27L19.55 27A0.45 0.45 0 0 1 20 27.45L20 27.55A0.45 0.45 0 0 0 20.45 28L20.55 28A0.45 0.45 0 0 0 21 27.55L21 27.45A0.45 0.45 0 0 1 21.45 27L21.55 27A0.45 0.45 0 0 1 22 27.45L22 27.55A0.45 0.45 0 0 0 22.45 28L23.55 28A0.45 0.45 0 0 0 24 27.55L24 27.45A0.45 0.45 0 0 0 23.55 27L23.45 27A0.45 0.45 0 0 1 23 26.55L23 26.45A0.45 0.45 0 0 0 22.55 26L21.45 26A0.45 0.45 0 0 0 21 26.45L21 26.55A0.45 0.45 0 0 1 20.55 27L20.45 27A0.45 0.45 0 0 1 20 26.55L20 26.45A0.45 0.45 0 0 0 19.55 26L19.45 26A0.45 0.45 0 0 1 19 25.55L19 24.45A0.45 0.45 0 0 1 19.45 24L19.55 24A0.45 0.45 0 0 0 20 23.55L20 23.45A0.45 0.45 0 0 0 19.55 23L18.45 23A0.45 0.45 0 0 0 18 23.45ZM16 25.45L16 25.55A0.45 0.45 0 0 0 16.45 26L16.55 26A0.45 0.45 0 0 0 17 25.55L17 25.45A0.45 0.45 0 0 0 16.55 25L16.45 25A0.45 0.45 0 0 0 16 25.45ZM24 25.45L24 25.55A0.45 0.45 0 0 0 24.45 26L24.55 26A0.45 0.45 0 0 0 25 25.55L25 25.45A0.45 0.45 0 0 0 24.55 25L24.45 25A0.45 0.45 0 0 0 24 25.45ZM13 26.45L13 26.55A0.45 0.45 0 0 0 13.45 27L13.55 27A0.45 0.45 0 0 1 14 27.45L14 27.55A0.45 0.45 0 0 0 14.45 28L14.55 28A0.45 0.45 0 0 0 15 27.55L15 26.45A0.45 0.45 0 0 0 14.55 26L13.45 26A0.45 0.45 0 0 0 13 26.45ZM28 26.45L28 27.55A0.45 0.45 0 0 1 27.55 28L27.45 28A0.45 0.45 0 0 1 27 27.55L27 27.45A0.45 0.45 0 0 0 26.55 27L26.45 27A0.45 0.45 0 0 0 26 27.45L26 27.55A0.45 0.45 0 0 0 26.45 28L26.55 28A0.45 0.45 0 0 1 27 28.45L27 28.55A0.45 0.45 0 0 0 27.45 29L28.55 29A0.45 0.45 0 0 0 29 28.55L29 26.45A0.45 0.45 0 0 0 28.55 26L28.45 26A0.45 0.45 0 0 0 28 26.45ZM9 28.45L9 28.55A0.45 0.45 0 0 0 9.45 29L9.55 29A0.45 0.45 0 0 0 10 28.55L10 28.45A0.45 0.45 0 0 0 9.55 28L9.45 28A0.45 0.45 0 0 0 9 28.45ZM0 0L7 0L7 7L0 7ZM1 1L1 6L6 6L6 1ZM2 2L5 2L5 5L2 5ZM22 0L29 0L29 7L22 7ZM23 1L23 6L28 6L28 1ZM24 2L27 2L27 5L24 5ZM0 22L7 22L7 29L0 29ZM1 23L1 28L6 28L6 23ZM2 24L5 24L5 27L2 27Z" style="fill-rule: evenodd; fill: #000000" /></g></g></svg></g><svg><text x="50%" y="92%" style="dominant-baseline: middle; text-anchor: middle; font-weight: bold; font-size: 129.77px; fill: #ffffff; font-family: Helvetica, Arial, sans-serif">Scan to review</text></svg></svg>