<?xml version="1.0" encoding="utf-8"?><svg xmlns="http://www.w3.org/2000/svg" xmlns:xlink="http://www.w3.org/1999/xlink" width="500" height="625.00" viewBox="0 0 500 625.00" style="fill: #F2FF58"><rect x="15.00" y="142.86" width="471.70" height="471.70" fill="#426859" fill-opacity="1" /><g transform="scale(20.83) translate(0 0)"><path d="M22.7,6L1.3,6C0.6,6,0,6.6,0,7.3l0,21.3C0,29.4,0.6,30,1.3,30l21.3,0c0.7,0,1.3-0.6,1.3-1.3l0-21.3 C24,6.6,23.4,6,22.7,6z M23,28c0,0.6-0.5,1-1,1L2,29c-0.6,0-1-0.5-1-1V8c0-0.6,0.5-1,1-1l20,0c0.6,0,1,0.5,1,1V28z" /><path d="M23,0H1C0.4,0,0,0.4,0,1v3c0,0.5,0.4,1,1,1h10l1,1l1-1h10c0.5,0,1-0.4,1-1V1C24,0.4,23.6,0,23,0z" />
                            
                        </g><g transform="scale(0.85) translate(43.48 192.31)"><svg xmlns="http://www.w3.org/2000/svg" version="1.1" width="500" height="500" viewBox="0 0 500 500"><g transform="scale(17.241)"><g transform="translate(0,0)"><path d="M8.9 0.5A0 0 0 0 1 8.5 0.9A0 0 0 0 1 8.1 0.5A0.1 0.1 0 0 1 8.5 0.1A0.1 0.1 0 0 1 8.9 0.5ZM9.9 0.5A0 0 0 0 1 9.5 0.9A0 0 0 0 1 9.1 0.5A0.1 0.1 0 0 1 9.5 0.1A0.1 0.1 0 0 1 9.9 0.5ZM11.9 0.5A0 0 0 0 1 11.5 0.9A0 0 0 0 1 11.1 0.5A0.1 0.1 0 0 1 11.5 0.1A0.1 0.1 0 0 1 11.9 0.5ZM13.9 0.5A0 0 0 0 1 13.5 0.9A0 0 0 0 1 13.1 0.5A0.1 0.1 0 0 1 13.5 0.1A0.1 0.1 0 0 1 13.9 0.5ZM16.9 0.5A0 0 0 0 1 16.5 0.9A0 0 0 0 1 16.1 0.5A0.1 0.1 0 0 1 16.5 0.1A0.1 0.1 0 0 1 16.9 0.5ZM19.9 0.5A0 0 0 0 1 19.5 0.9A0 0 0 0 1 19.1 0.5A0.1 0.1 0 0 1 19.5 0.1A0.1 0.1 0 0 1 19.9 0.5ZM9.9 1.5A0 0 0 0 1 9.5 1.9A0 0 0 0 1 9.1 1.5A0.1 0.1 0 0 1 9.5 1.1A0.1 0.1 0 0 1 9.9 1.5ZM10.9 1.5A0 0 0 0 1 10.5 1.9A0 0 0 0 1 10.1 1.5A0.1 0.1 0 0 1 10.5 1.1A0.1 0.1 0 0 1 10.9 1.5ZM11.9 1.5A0 0 0 0 1 11.5 1.9A0 0 0 0 1 11.1 1.5A0.1 0.1 0 0 1 11.5 1.1A0.1 0.1 0 0 1 11.9 1.5ZM15.9 1.5A0 0 0 0 1 15.5 1.9A0 0 0 0 1 15.1 1.5A0.1 0.1 0 0 1 15.5 1.1A0.1 0.1 0 0 1 15.9 1.5ZM17.9 1.5A0 0 0 0 1 17.5 1.9A0 0 0 0 1 17.1 1.5A0.1 0.1 0 0 1 17.5 1.1A0.1 0.1 0 0 1 17.9 1.5ZM20.9 1.5A0 0 0 0 1 20.5 1.9A0 0 0 0 1 20.1 1.5A0.1 0.1 0 0 1 20.5 1.1A0.1 0.1 0 0 1 20.9 1.5ZM9.9 2.5A0 0 0 0 1 9.5 2.9A0 0 0 0 1 9.1 2.5A0.1 0.1 0 0 1 9.5 2.1A0.1 0.1 0 0 1 9.9 2.5ZM12.9 2.5A0 0 0 0 1 12.5 2.9A0 0 0 0 1 12.1 2.5A0.1 0.1 0 0 1 12.5 2.1A0.1 0.1 0 0 1 12.9 2.5ZM17.9 2.5A0 0 0 0 1 17.5 2.9A0 0 0 0 1 17.1 2.5A0.1 0.1 0 0 1 17.5 2.1A0.1 0.1 0 0 1 17.9 2.5ZM19.9 2.5A0 0 0 0 1 19.5 2.9A0 0 0 0 1 19.1 2.5A0.1 0.1 0 0 1 19.5 2.1A0.1 0.1 0 0 1 19.9 2.5ZM20.9 2.5A0 0 0 0 1 20.5 2.9A0 0 0 0 1 20.1 2.5A0.1 0.1 0 0 1 20.5 2.1A0.1 0.1 0 0 1 20.9 2.5ZM8.9 3.5A0 0 0 0 1 8.5 3.9A0 0 0 0 1 8.1 3.5A0.1 0.1 0 0 1 8.5 3.1A0.1 0.1 0 0 1 8.9 3.5ZM9.9 3.5A0 0 0 0 1 9.5 3.9A0 0 0 0 1 9.1 3.5A0.1 0.1 0 0 1 9.5 3.1A0.1 0.1 0 0 1 9.9 3.5ZM10.9 3.5A0 0 0 0 1 10.5 3.9A0 0 0 0 1 10.1 3.5A0.1 0.1 0 0 1 10.5 3.1A0.1 0.1 0 0 1 10.9 3.5ZM14.9 3.5A0 0 0 0 1 14.5 3.9A0 0 0 0 1 14.1 3.5A0.1 0.1 0 0 1 14.5 3.1A0.1 0.1 0 0 1 14.9 3.5ZM15.9 3.5A0 0 0 0 1 15.5 3.9A0 0 0 0 1 15.1 3.5A0.1 0.1 0 0 1 15.5 3.1A0.1 0.1 0 0 1 15.9 3.5ZM17.9 3.5A0 0 0 0 1 17.5 3.9A0 0 0 0 1 17.1 3.5A0.1 0.1 0 0 1 17.5 3.1A0.1 0.1 0 0 1 17.9 3.5ZM18.9 3.5A0 0 0 0 1 18.5 3.9A0 0 0 0 1 18.1 3.5A0.1 0.1 0 0 1 18.5 3.1A0.1 0.1 0 0 1 18.9 3.5ZM20.9 3.5A0 0 0 0 1 20.5 3.9A0 0 0 0 1 20.1 3.5A0.1 0.1 0 0 1 20.5 3.1A0.1 0.1 0 0 1 20.9 3.5ZM8.9 4.5A0 0 0 0 1 8.5 4.9A0 0 0 0 1 8.1 4.5A0.1 0.1 0 0 1 8.5 4.1A0.1 0.1 0 0 1 8.9 4.5ZM9.9 4.5A0 0 0 0 1 9.5 4.9A0 0 0 0 1 9.1 4.5A0.1 0.1 0 0 1 9.5 4.1A0.1 0.1 0 0 1 9.9 4.5ZM10.9 4.5A0 0 0 0 1 10.5 4.9A0 0 0 0 1 10.1 4.5A0.1 0.1 0 0 1 10.5 4.1A0.1 0.1 0 0 1 10.9 4.5ZM11.9 4.5A0 0 0 0 1 11.5 4.9A0 0 0 0 1 11.1 4.5A0.1 0.1 0 0 1 11.5 4.1A0.1 0.1 0 0 1 11.9 4.5ZM13.9 4.5A0 0 0 0 1 13.5 4.9A0 0 0 0 1 13.1 4.5A0.1 0.1 0 0 1 13.5 4.1A0.1 0.1 0 0 1 13.9 4.5ZM15.9 4.5A0 0 0 0 1 15.5 4.9A0 0 0 0 1 15.1 4.5A0.1 0.1 0 0 1 15.5 4.1A0.1 0.1 0 0 1 15.9 4.5ZM16.9 4.5A0 0 0 0 1 16.5 4.9A0 0 0 0 1 16.1 4.5A0.1 0.1 0 0 1 16.5 4.1A0.1 0.1 0 0 1 16.9 4.5ZM19.9 4.5A0 0 0 0 1 19.5 4.9A0 0 0 0 1 19.1 4.5A0.1 0.1 0 0 1 19.5 4.1A0.1 0.1 0 0 1 19.9 4.5ZM20.9 4.5A0 0 0 0 1 20.5 4.9A0 0 0 0 1 20.1 4.5A0.1 0.1 0 0 1 20.5 4.1A0.1 0.1 0 0 1 20.9 4.5ZM8.9 5.5A0 0 0 0 1 8.5 5.9A0 0 0 0 1 8.1 5.5A0.1 0.1 0 0 1 8.5 5.1A0.1 0.1 0 0 1 8.9 5.5ZM10.9 5.5A0 0 0 0 1 10.5 5.9A0 0 0 0 1 10.1 5.5A0.1 0.1 0 0 1 10.5 5.1A0.1 0.1 0 0 1 10.9 5.5ZM12.9 5.5A0 0 0 0 1 12.5 5.9A0 0 0 0 1 12.1 5.5A0.1 0.1 0 0 1 12.5 5.1A0.1 0.1 0 0 1 12.9 5.5ZM13.9 5.5A0 0 0 0 1 13.5 5.9A0 0 0 0 1 13.1 5.5A0.1 0.1 0 0 1 13.5 5.1A0.1 0.1 0 0 1 13.9 5.5ZM14.9 5.5A0 0 0 0 1 14.5 5.9A0 0 0 0 1 14.1 5.5A0.1 0.1 0 0 1 14.5 5.1A0.1 0.1 0 0 1 14.9 5.5ZM15.9 5.5A0 0 0 0 1 15.5 5.9A0 0 0 0 1 15.1 5.5A0.1 0.1 0 0 1 15.5 5.1A0.1 0.1 0 0 1 15.9 5.5ZM17.9 5.5A0 0 0 0 1 17.5 5.9A0 0 0 0 1 17.1 5.5A0.1 0.1 0 0 1 17.5 5.1A0.1 0.1 0 0 1 17.9 5.5ZM8.9 6.5A0 0 0 0 1 8.5 6.9A0 0 0 0 1 8.1 6.5A0.1 0.1 0 0 1 8.5 6.1A0.1 0.1 0 0 1 8.9 6.5ZM10.9 6.5A0 0 0 0 1 10.5 6.9A0 0 0 0 1 10.1 6.5A0.1 0.1 0 0 1 10.5 6.1A0.1 0.1 0 0 1 10.9 6.5ZM12.9 6.5A0 0 0 0 1 12.5 6.9A0 0 0 0 1 12.1 6.5A0.1 0.1 0 0 1 12.5 6.1A0.1 0.1 0 0 1 12.9 6.5ZM14.9 6.5A0 0 0 0 1 14.5 6.9A0 0 0 0 1 14.1 6.5A0.1 0.1 0 0 1 14.5 6.1A0.1 0.1 0 0 1 14.9 6.5ZM16.9 6.5A0 0 0 0 1 16.5 6.9A0 0 0 0 1 16.1 6.5A0.1 0.1 0 0 1 16.5 6.1A0.1 0.1 0 0 1 16.9 6.5ZM18.9 6.5A0 0 0 0 1 18.5 6.9A0 0 0 0 1 18.1 6.5A0.1 0.1 0 0 1 18.5 6.1A0.1 0.1 0 0 1 18.9 6.5ZM20.9 6.5A0 0 0 0 1 20.5 6.9A0 0 0 0 1 20.1 6.5A0.1 0.1 0 0 1 20.5 6.1A0.1 0.1 0 0 1 20.9 6.5ZM8.9 7.5A0 0 0 0 1 8.5 7.9A0 0 0 0 1 8.1 7.5A0.1 0.1 0 0 1 8.5 7.1A0.1 0.1 0 0 1 8.9 7.5ZM12.9 7.5A0 0 0 0 1 12.5 7.9A0 0 0 0 1 12.1 7.5A0.1 0.1 0 0 1 12.5 7.1A0.1 0.1 0 0 1 12.9 7.5ZM17.9 7.5A0 0 0 0 1 17.5 7.9A0 0 0 0 1 17.1 7.5A0.1 0.1 0 0 1 17.5 7.1A0.1 0.1 0 0 1 17.9 7.5ZM19.9 7.5A0 0 0 0 1 19.5 7.9A0 0 0 0 1 19.1 7.5A0.1 0.1 0 0 1 19.5 7.1A0.1 0.1 0 0 1 19.9 7.5ZM20.9 7.5A0 0 0 0 1 20.5 7.9A0 0 0 0 1 20.1 7.5A0.1 0.1 0 0 1 20.5 7.1A0.1 0.1 0 0 1 20.9 7.5ZM0.9 8.5A0 0 0 0 1 0.5 8.9A0 0 0 0 1 0.1 8.5A0.1 0.1 0 0 1 0.5 8.1A0.1 0.1 0 0 1 0.9 8.5ZM4.9 8.5A0 0 0 0 1 4.5 8.9A0 0 0 0 1 4.1 8.5A0.1 0.1 0 0 1 4.5 8.1A0.1 0.1 0 0 1 4.9 8.5ZM6.9 8.5A0 0 0 0 1 6.5 8.9A0 0 0 0 1 6.1 8.5A0.1 0.1 0 0 1 6.5 8.1A0.1 0.1 0 0 1 6.9 8.5ZM7.9 8.5A0 0 0 0 1 7.5 8.9A0 0 0 0 1 7.1 8.5A0.1 0.1 0 0 1 7.5 8.1A0.1 0.1 0 0 1 7.9 8.5ZM8.9 8.5A0 0 0 0 1 8.5 8.9A0 0 0 0 1 8.1 8.5A0.1 0.1 0 0 1 8.5 8.1A0.1 0.1 0 0 1 8.9 8.5ZM10.9 8.5A0 0 0 0 1 10.5 8.9A0 0 0 0 1 10.1 8.5A0.1 0.1 0 0 1 10.5 8.1A0.1 0.1 0 0 1 10.9 8.5ZM13.9 8.5A0 0 0 0 1 13.5 8.9A0 0 0 0 1 13.1 8.5A0.1 0.1 0 0 1 13.5 8.1A0.1 0.1 0 0 1 13.9 8.5ZM14.9 8.5A0 0 0 0 1 14.5 8.9A0 0 0 0 1 14.1 8.5A0.1 0.1 0 0 1 14.5 8.1A0.1 0.1 0 0 1 14.9 8.5ZM19.9 8.5A0 0 0 0 1 19.5 8.9A0 0 0 0 1 19.1 8.5A0.1 0.1 0 0 1 19.5 8.1A0.1 0.1 0 0 1 19.9 8.5ZM20.9 8.5A0 0 0 0 1 20.5 8.9A0 0 0 0 1 20.1 8.5A0.1 0.1 0 0 1 20.5 8.1A0.1 0.1 0 0 1 20.9 8.5ZM21.9 8.5A0 0 0 0 1 21.5 8.9A0 0 0 0 1 21.1 8.5A0.1 0.1 0 0 1 21.5 8.1A0.1 0.1 0 0 1 21.9 8.5ZM22.9 8.5A0 0 0 0 1 22.5 8.9A0 0 0 0 1 22.1 8.5A0.1 0.1 0 0 1 22.5 8.1A0.1 0.1 0 0 1 22.9 8.5ZM23.9 8.5A0 0 0 0 1 23.5 8.9A0 0 0 0 1 23.1 8.5A0.1 0.1 0 0 1 23.5 8.1A0.1 0.1 0 0 1 23.9 8.5ZM24.9 8.5A0 0 0 0 1 24.5 8.9A0 0 0 0 1 24.1 8.5A0.1 0.1 0 0 1 24.5 8.1A0.1 0.1 0 0 1 24.9 8.5ZM25.9 8.5A0 0 0 0 1 25.5 8.9A0 0 0 0 1 25.1 8.5A0.1 0.1 0 0 1 25.5 8.1A0.1 0.1 0 0 1 25.9 8.5ZM28.9 8.5A0 0 0 0 1 28.5 8.9A0 0 0 0 1 28.1 8.5A0.1 0.1 0 0 1 28.5 8.1A0.1 0.1 0 0 1 28.9 8.5ZM1.9 9.5A0 0 0 0 1 1.5 9.9A0 0 0 0 1 1.1 9.5A0.1 0.1 0 0 1 1.5 9.1A0.1 0.1 0 0 1 1.9 9.5ZM7.9 9.5A0 0 0 0 1 7.5 9.9A0 0 0 0 1 7.1 9.5A0.1 0.1 0 0 1 7.5 9.1A0.1 0.1 0 0 1 7.9 9.5ZM9.9 9.5A0 0 0 0 1 9.5 9.9A0 0 0 0 1 9.1 9.5A0.1 0.1 0 0 1 9.5 9.1A0.1 0.1 0 0 1 9.9 9.5ZM11.9 9.5A0 0 0 0 1 11.5 9.9A0 0 0 0 1 11.1 9.5A0.1 0.1 0 0 1 11.5 9.1A0.1 0.1 0 0 1 11.9 9.5ZM12.9 9.5A0 0 0 0 1 12.5 9.9A0 0 0 0 1 12.1 9.5A0.1 0.1 0 0 1 12.5 9.1A0.1 0.1 0 0 1 12.9 9.5ZM14.9 9.5A0 0 0 0 1 14.5 9.9A0 0 0 0 1 14.1 9.5A0.1 0.1 0 0 1 14.5 9.1A0.1 0.1 0 0 1 14.9 9.5ZM18.9 9.5A0 0 0 0 1 18.5 9.9A0 0 0 0 1 18.1 9.5A0.1 0.1 0 0 1 18.5 9.1A0.1 0.1 0 0 1 18.9 9.5ZM19.9 9.5A0 0 0 0 1 19.5 9.9A0 0 0 0 1 19.1 9.5A0.1 0.1 0 0 1 19.5 9.1A0.1 0.1 0 0 1 19.9 9.5ZM21.9 9.5A0 0 0 0 1 21.5 9.9A0 0 0 0 1 21.1 9.5A0.1 0.1 0 0 1 21.5 9.1A0.1 0.1 0 0 1 21.9 9.5ZM22.9 9.5A0 0 0 0 1 22.5 9.9A0 0 0 0 1 22.1 9.5A0.1 0.1 0 0 1 22.5 9.1A0.1 0.1 0 0 1 22.9 9.5ZM23.9 9.5A0 0 0 0 1 23.5 9.9A0 0 0 0 1 23.1 9.5A0.1 0.1 0 0 1 23.5 9.1A0.1 0.1 0 0 1 23.9 9.5ZM24.9 9.5A0 0 0 0 1 24.5 9.9A0 0 0 0 1 24.1 9.5A0.1 0.1 0 0 1 24.5 9.1A0.1 0.1 0 0 1 24.9 9.5ZM26.9 9.5A0 0 0 0 1 26.5 9.9A0 0 0 0 1 26.1 9.5A0.1 0.1 0 0 1 26.5 9.1A0.1 0.1 0 0 1 26.9 9.5ZM0.9 10.5A0 0 0 0 1 0.5 10.9A0 0 0 0 1 0.1 10.5A0.1 0.1 0 0 1 0.5 10.1A0.1 0.1 0 0 1 0.9 10.5ZM1.9 10.5A0 0 0 0 1 1.5 10.9A0 0 0 0 1 1.1 10.5A0.1 0.1 0 0 1 1.5 10.1A0.1 0.1 0 0 1 1.9 10.5ZM3.9 10.5A0 0 0 0 1 3.5 10.9A0 0 0 0 1 3.1 10.5A0.1 0.1 0 0 1 3.5 10.1A0.1 0.1 0 0 1 3.9 10.5ZM5.9 10.5A0 0 0 0 1 5.5 10.9A0 0 0 0 1 5.1 10.5A0.1 0.1 0 0 1 5.5 10.1A0.1 0.1 0 0 1 5.9 10.5ZM6.9 10.5A0 0 0 0 1 6.5 10.9A0 0 0 0 1 6.1 10.5A0.1 0.1 0 0 1 6.5 10.1A0.1 0.1 0 0 1 6.9 10.5ZM7.9 10.5A0 0 0 0 1 7.5 10.9A0 0 0 0 1 7.1 10.5A0.1 0.1 0 0 1 7.5 10.1A0.1 0.1 0 0 1 7.9 10.5ZM11.9 10.5A0 0 0 0 1 11.5 10.9A0 0 0 0 1 11.1 10.5A0.1 0.1 0 0 1 11.5 10.1A0.1 0.1 0 0 1 11.9 10.5ZM12.9 10.5A0 0 0 0 1 12.5 10.9A0 0 0 0 1 12.1 10.5A0.1 0.1 0 0 1 12.5 10.1A0.1 0.1 0 0 1 12.9 10.5ZM13.9 10.5A0 0 0 0 1 13.5 10.9A0 0 0 0 1 13.1 10.5A0.1 0.1 0 0 1 13.5 10.1A0.1 0.1 0 0 1 13.9 10.5ZM14.9 10.5A0 0 0 0 1 14.5 10.9A0 0 0 0 1 14.1 10.5A0.1 0.1 0 0 1 14.5 10.1A0.1 0.1 0 0 1 14.9 10.5ZM16.9 10.5A0 0 0 0 1 16.5 10.9A0 0 0 0 1 16.1 10.5A0.1 0.1 0 0 1 16.5 10.1A0.1 0.1 0 0 1 16.9 10.5ZM18.9 10.5A0 0 0 0 1 18.5 10.9A0 0 0 0 1 18.1 10.5A0.1 0.1 0 0 1 18.5 10.1A0.1 0.1 0 0 1 18.9 10.5ZM20.9 10.5A0 0 0 0 1 20.5 10.9A0 0 0 0 1 20.1 10.5A0.1 0.1 0 0 1 20.5 10.1A0.1 0.1 0 0 1 20.9 10.5ZM21.9 10.5A0 0 0 0 1 21.5 10.9A0 0 0 0 1 21.1 10.5A0.1 0.1 0 0 1 21.5 10.1A0.1 0.1 0 0 1 21.9 10.5ZM22.9 10.5A0 0 0 0 1 22.5 10.9A0 0 0 0 1 22.1 10.5A0.1 0.1 0 0 1 22.5 10.1A0.1 0.1 0 0 1 22.9 10.5ZM24.9 10.5A0 0 0 0 1 24.5 10.9A0 0 0 0 1 24.1 10.5A0.1 0.1 0 0 1 24.5 10.1A0.1 0.1 0 0 1 24.9 10.5ZM25.9 10.5A0 0 0 0 1 25.5 10.9A0 0 0 0 1 25.1 10.5A0.1 0.1 0 0 1 25.5 10.1A0.1 0.1 0 0 1 25.9 10.5ZM26.9 10.5A0 0 0 0 1 26.5 10.9A0 0 0 0 1 26.1 10.5A0.1 0.1 0 0 1 26.5 10.1A0.1 0.1 0 0 1 26.9 10.5ZM28.9 10.5A0 0 0 0 1 28.5 10.9A0 0 0 0 1 28.1 10.5A0.1 0.1 0 0 1 28.5 10.1A0.1 0.1 0 0 1 28.9 10.5ZM1.9 11.5A0 0 0 0 1 1.5 11.9A0 0 0 0 1 1.1 11.5A0.1 0.1 0 0 1 1.5 11.1A0.1 0.1 0 0 1 1.9 11.5ZM2.9 11.5A0 0 0 0 1 2.5 11.9A0 0 0 0 1 2.1 11.5A0.1 0.1 0 0 1 2.5 11.1A0.1 0.1 0 0 1 2.9 11.5ZM3.9 11.5A0 0 0 0 1 3.5 11.9A0 0 0 0 1 3.1 11.5A0.1 0.1 0 0 1 3.5 11.1A0.1 0.1 0 0 1 3.9 11.5ZM4.9 11.5A0 0 0 0 1 4.5 11.9A0 0 0 0 1 4.1 11.5A0.1 0.1 0 0 1 4.5 11.1A0.1 0.1 0 0 1 4.9 11.5ZM7.9 11.5A0 0 0 0 1 7.5 11.9A0 0 0 0 1 7.1 11.5A0.1 0.1 0 0 1 7.5 11.1A0.1 0.1 0 0 1 7.9 11.5ZM11.9 11.5A0 0 0 0 1 11.5 11.9A0 0 0 0 1 11.1 11.5A0.1 0.1 0 0 1 11.5 11.1A0.1 0.1 0 0 1 11.9 11.5ZM13.9 11.5A0 0 0 0 1 13.5 11.9A0 0 0 0 1 13.1 11.5A0.1 0.1 0 0 1 13.5 11.1A0.1 0.1 0 0 1 13.9 11.5ZM19.9 11.5A0 0 0 0 1 19.5 11.9A0 0 0 0 1 19.1 11.5A0.1 0.1 0 0 1 19.5 11.1A0.1 0.1 0 0 1 19.9 11.5ZM20.9 11.5A0 0 0 0 1 20.5 11.9A0 0 0 0 1 20.1 11.5A0.1 0.1 0 0 1 20.5 11.1A0.1 0.1 0 0 1 20.9 11.5ZM21.9 11.5A0 0 0 0 1 21.5 11.9A0 0 0 0 1 21.1 11.5A0.1 0.1 0 0 1 21.5 11.1A0.1 0.1 0 0 1 21.9 11.5ZM25.9 11.5A0 0 0 0 1 25.5 11.9A0 0 0 0 1 25.1 11.5A0.1 0.1 0 0 1 25.5 11.1A0.1 0.1 0 0 1 25.9 11.5ZM0.9 12.5A0 0 0 0 1 0.5 12.9A0 0 0 0 1 0.1 12.5A0.1 0.1 0 0 1 0.5 12.1A0.1 0.1 0 0 1 0.9 12.5ZM1.9 12.5A0 0 0 0 1 1.5 12.9A0 0 0 0 1 1.1 12.5A0.1 0.1 0 0 1 1.5 12.1A0.1 0.1 0 0 1 1.9 12.5ZM2.9 12.5A0 0 0 0 1 2.5 12.9A0 0 0 0 1 2.1 12.5A0.1 0.1 0 0 1 2.5 12.1A0.1 0.1 0 0 1 2.9 12.5ZM4.9 12.5A0 0 0 0 1 4.5 12.9A0 0 0 0 1 4.1 12.5A0.1 0.1 0 0 1 4.5 12.1A0.1 0.1 0 0 1 4.9 12.5ZM6.9 12.5A0 0 0 0 1 6.5 12.9A0 0 0 0 1 6.1 12.5A0.1 0.1 0 0 1 6.5 12.1A0.1 0.1 0 0 1 6.9 12.5ZM7.9 12.5A0 0 0 0 1 7.5 12.9A0 0 0 0 1 7.1 12.5A0.1 0.1 0 0 1 7.5 12.1A0.1 0.1 0 0 1 7.9 12.5ZM13.9 12.5A0 0 0 0 1 13.5 12.9A0 0 0 0 1 13.1 12.5A0.1 0.1 0 0 1 13.5 12.1A0.1 0.1 0 0 1 13.9 12.5ZM16.9 12.5A0 0 0 0 1 16.5 12.9A0 0 0 0 1 16.1 12.5A0.1 0.1 0 0 1 16.5 12.1A0.1 0.1 0 0 1 16.9 12.5ZM18.9 12.5A0 0 0 0 1 18.5 12.9A0 0 0 0 1 18.1 12.5A0.1 0.1 0 0 1 18.5 12.1A0.1 0.1 0 0 1 18.9 12.5ZM19.9 12.5A0 0 0 0 1 19.5 12.9A0 0 0 0 1 19.1 12.5A0.1 0.1 0 0 1 19.5 12.1A0.1 0.1 0 0 1 19.9 12.5ZM21.9 12.5A0 0 0 0 1 21.5 12.9A0 0 0 0 1 21.1 12.5A0.1 0.1 0 0 1 21.5 12.1A0.1 0.1 0 0 1 21.9 12.5ZM22.9 12.5A0 0 0 0 1 22.5 12.9A0 0 0 0 1 22.1 12.5A0.1 0.1 0 0 1 22.5 12.1A0.1 0.1 0 0 1 22.9 12.5ZM23.9 12.5A0 0 0 0 1 23.5 12.9A0 0 0 0 1 23.1 12.5A0.1 0.1 0 0 1 23.5 12.1A0.1 0.1 0 0 1 23.9 12.5ZM25.9 12.5A0 0 0 0 1 25.5 12.9A0 0 0 0 1 25.1 12.5A0.1 0.1 0 0 1 25.5 12.1A0.1 0.1 0 0 1 25.9 12.5ZM26.9 12.5A0 0 0 0 1 26.5 12.9A0 0 0 0 1 26.1 12.5A0.1 0.1 0 0 1 26.5 12.1A0.1 0.1 0 0 1 26.9 12.5ZM27.9 12.5A0 0 0 0 1 27.5 12.9A0 0 0 0 1 27.1 12.5A0.1 0.1 0 0 1 27.5 12.1A0.1 0.1 0 0 1 27.9 12.5ZM0.9 13.5A0 0 0 0 1 0.5 13.9A0 0 0 0 1 0.1 13.5A0.1 0.1 0 0 1 0.5 13.1A0.1 0.1 0 0 1 0.9 13.5ZM10.9 13.5A0 0 0 0 1 10.5 13.9A0 0 0 0 1 10.1 13.5A0.1 0.1 0 0 1 10.5 13.1A0.1 0.1 0 0 1 10.9 13.5ZM12.9 13.5A0 0 0 0 1 12.5 13.9A0 0 0 0 1 12.1 13.5A0.1 0.1 0 0 1 12.5 13.1A0.1 0.1 0 0 1 12.9 13.5ZM13.9 13.5A0 0 0 0 1 13.5 13.9A0 0 0 0 1 13.1 13.5A0.1 0.1 0 0 1 13.5 13.1A0.1 0.1 0 0 1 13.9 13.5ZM14.9 13.5A0 0 0 0 1 14.5 13.9A0 0 0 0 1 14.1 13.5A0.1 0.1 0 0 1 14.5 13.1A0.1 0.1 0 0 1 14.9 13.5ZM15.9 13.5A0 0 0 0 1 15.5 13.9A0 0 0 0 1 15.1 13.5A0.1 0.1 0 0 1 15.5 13.1A0.1 0.1 0 0 1 15.9 13.5ZM16.9 13.5A0 0 0 0 1 16.5 13.9A0 0 0 0 1 16.1 13.5A0.1 0.1 0 0 1 16.5 13.1A0.1 0.1 0 0 1 16.9 13.5ZM19.9 13.5A0 0 0 0 1 19.5 13.9A0 0 0 0 1 19.1 13.5A0.1 0.1 0 0 1 19.5 13.1A0.1 0.1 0 0 1 19.9 13.5ZM20.9 13.5A0 0 0 0 1 20.5 13.9A0 0 0 0 1 20.1 13.5A0.1 0.1 0 0 1 20.5 13.1A0.1 0.1 0 0 1 20.9 13.5ZM22.9 13.5A0 0 0 0 1 22.5 13.9A0 0 0 0 1 22.1 13.5A0.1 0.1 0 0 1 22.5 13.1A0.1 0.1 0 0 1 22.9 13.5ZM23.9 13.5A0 0 0 0 1 23.5 13.9A0 0 0 0 1 23.1 13.5A0.1 0.1 0 0 1 23.5 13.1A0.1 0.1 0 0 1 23.9 13.5ZM24.9 13.5A0 0 0 0 1 24.5 13.9A0 0 0 0 1 24.1 13.5A0.1 0.1 0 0 1 24.5 13.1A0.1 0.1 0 0 1 24.9 13.5ZM26.9 13.5A0 0 0 0 1 26.5 13.9A0 0 0 0 1 26.1 13.5A0.1 0.1 0 0 1 26.5 13.1A0.1 0.1 0 0 1 26.9 13.5ZM2.9 14.5A0 0 0 0 1 2.5 14.9A0 0 0 0 1 2.1 14.5A0.1 0.1 0 0 1 2.5 14.1A0.1 0.1 0 0 1 2.9 14.5ZM3.9 14.5A0 0 0 0 1 3.5 14.9A0 0 0 0 1 3.1 14.5A0.1 0.1 0 0 1 3.5 14.1A0.1 0.1 0 0 1 3.9 14.5ZM4.9 14.5A0 0 0 0 1 4.5 14.9A0 0 0 0 1 4.1 14.5A0.1 0.1 0 0 1 4.5 14.1A0.1 0.1 0 0 1 4.9 14.5ZM6.9 14.5A0 0 0 0 1 6.5 14.9A0 0 0 0 1 6.1 14.5A0.1 0.1 0 0 1 6.5 14.1A0.1 0.1 0 0 1 6.9 14.5ZM8.9 14.5A0 0 0 0 1 8.5 14.9A0 0 0 0 1 8.1 14.5A0.1 0.1 0 0 1 8.5 14.1A0.1 0.1 0 0 1 8.9 14.5ZM10.9 14.5A0 0 0 0 1 10.5 14.9A0 0 0 0 1 10.1 14.5A0.1 0.1 0 0 1 10.5 14.1A0.1 0.1 0 0 1 10.9 14.5ZM16.9 14.5A0 0 0 0 1 16.5 14.9A0 0 0 0 1 16.1 14.5A0.1 0.1 0 0 1 16.5 14.1A0.1 0.1 0 0 1 16.9 14.5ZM18.9 14.5A0 0 0 0 1 18.5 14.9A0 0 0 0 1 18.1 14.5A0.1 0.1 0 0 1 18.5 14.1A0.1 0.1 0 0 1 18.9 14.5ZM19.9 14.5A0 0 0 0 1 19.5 14.9A0 0 0 0 1 19.1 14.5A0.1 0.1 0 0 1 19.5 14.1A0.1 0.1 0 0 1 19.9 14.5ZM22.9 14.5A0 0 0 0 1 22.5 14.9A0 0 0 0 1 22.1 14.5A0.1 0.1 0 0 1 22.5 14.1A0.1 0.1 0 0 1 22.9 14.5ZM24.9 14.5A0 0 0 0 1 24.5 14.9A0 0 0 0 1 24.1 14.5A0.1 0.1 0 0 1 24.5 14.1A0.1 0.1 0 0 1 24.9 14.5ZM25.9 14.5A0 0 0 0 1 25.5 14.9A0 0 0 0 1 25.1 14.5A0.1 0.1 0 0 1 25.5 14.1A0.1 0.1 0 0 1 25.9 14.5ZM26.9 14.5A0 0 0 0 1 26.5 14.9A0 0 0 0 1 26.1 14.5A0.1 0.1 0 0 1 26.5 14.1A0.1 0.1 0 0 1 26.9 14.5ZM27.9 14.5A0 0 0 0 1 27.5 14.9A0 0 0 0 1 27.1 14.5A0.1 0.1 0 0 1 27.5 14.1A0.1 0.1 0 0 1 27.9 14.5ZM0.9 15.5A0 0 0 0 1 0.5 15.9A0 0 0 0 1 0.1 15.5A0.1 0.1 0 0 1 0.5 15.1A0.1 0.1 0 0 1 0.9 15.5ZM1.9 15.5A0 0 0 0 1 1.5 15.9A0 0 0 0 1 1.1 15.5A0.1 0.1 0 0 1 1.5 15.1A0.1 0.1 0 0 1 1.9 15.5ZM3.9 15.5A0 0 0 0 1 3.5 15.9A0 0 0 0 1 3.1 15.5A0.1 0.1 0 0 1 3.5 15.1A0.1 0.1 0 0 1 3.9 15.5ZM5.9 15.5A0 0 0 0 1 5.5 15.9A0 0 0 0 1 5.1 15.5A0.1 0.1 0 0 1 5.5 15.1A0.1 0.1 0 0 1 5.9 15.5ZM7.9 15.5A0 0 0 0 1 7.5 15.9A0 0 0 0 1 7.1 15.5A0.1 0.1 0 0 1 7.5 15.1A0.1 0.1 0 0 1 7.9 15.5ZM9.9 15.5A0 0 0 0 1 9.5 15.9A0 0 0 0 1 9.1 15.5A0.1 0.1 0 0 1 9.5 15.1A0.1 0.1 0 0 1 9.9 15.5ZM10.9 15.5A0 0 0 0 1 10.5 15.9A0 0 0 0 1 10.1 15.5A0.1 0.1 0 0 1 10.5 15.1A0.1 0.1 0 0 1 10.9 15.5ZM14.9 15.5A0 0 0 0 1 14.5 15.9A0 0 0 0 1 14.1 15.5A0.1 0.1 0 0 1 14.5 15.1A0.1 0.1 0 0 1 14.9 15.5ZM16.9 15.5A0 0 0 0 1 16.5 15.9A0 0 0 0 1 16.1 15.5A0.1 0.1 0 0 1 16.5 15.1A0.1 0.1 0 0 1 16.9 15.5ZM17.9 15.5A0 0 0 0 1 17.5 15.9A0 0 0 0 1 17.1 15.5A0.1 0.1 0 0 1 17.5 15.1A0.1 0.1 0 0 1 17.9 15.5ZM19.9 15.5A0 0 0 0 1 19.5 15.9A0 0 0 0 1 19.1 15.5A0.1 0.1 0 0 1 19.5 15.1A0.1 0.1 0 0 1 19.9 15.5ZM20.9 15.5A0 0 0 0 1 20.5 15.9A0 0 0 0 1 20.1 15.5A0.1 0.1 0 0 1 20.5 15.1A0.1 0.1 0 0 1 20.9 15.5ZM21.9 15.5A0 0 0 0 1 21.5 15.9A0 0 0 0 1 21.1 15.5A0.1 0.1 0 0 1 21.5 15.1A0.1 0.1 0 0 1 21.9 15.5ZM27.9 15.5A0 0 0 0 1 27.5 15.9A0 0 0 0 1 27.1 15.5A0.1 0.1 0 0 1 27.5 15.1A0.1 0.1 0 0 1 27.9 15.5ZM0.9 16.5A0 0 0 0 1 0.5 16.9A0 0 0 0 1 0.1 16.5A0.1 0.1 0 0 1 0.5 16.1A0.1 0.1 0 0 1 0.9 16.5ZM6.9 16.5A0 0 0 0 1 6.5 16.9A0 0 0 0 1 6.1 16.5A0.1 0.1 0 0 1 6.5 16.1A0.1 0.1 0 0 1 6.9 16.5ZM7.9 16.5A0 0 0 0 1 7.5 16.9A0 0 0 0 1 7.1 16.5A0.1 0.1 0 0 1 7.5 16.1A0.1 0.1 0 0 1 7.9 16.5ZM10.9 16.5A0 0 0 0 1 10.5 16.9A0 0 0 0 1 10.1 16.5A0.1 0.1 0 0 1 10.5 16.1A0.1 0.1 0 0 1 10.9 16.5ZM11.9 16.5A0 0 0 0 1 11.5 16.9A0 0 0 0 1 11.1 16.5A0.1 0.1 0 0 1 11.5 16.1A0.1 0.1 0 0 1 11.9 16.5ZM13.9 16.5A0 0 0 0 1 13.5 16.9A0 0 0 0 1 13.1 16.5A0.1 0.1 0 0 1 13.5 16.1A0.1 0.1 0 0 1 13.9 16.5ZM14.9 16.5A0 0 0 0 1 14.5 16.9A0 0 0 0 1 14.1 16.5A0.1 0.1 0 0 1 14.5 16.1A0.1 0.1 0 0 1 14.9 16.5ZM16.9 16.5A0 0 0 0 1 16.5 16.9A0 0 0 0 1 16.1 16.5A0.1 0.1 0 0 1 16.5 16.1A0.1 0.1 0 0 1 16.9 16.5ZM18.9 16.5A0 0 0 0 1 18.5 16.9A0 0 0 0 1 18.1 16.5A0.1 0.1 0 0 1 18.5 16.1A0.1 0.1 0 0 1 18.9 16.5ZM19.9 16.5A0 0 0 0 1 19.5 16.9A0 0 0 0 1 19.1 16.5A0.1 0.1 0 0 1 19.5 16.1A0.1 0.1 0 0 1 19.9 16.5ZM20.9 16.5A0 0 0 0 1 20.5 16.9A0 0 0 0 1 20.1 16.5A0.1 0.1 0 0 1 20.5 16.1A0.1 0.1 0 0 1 20.9 16.5ZM23.9 16.5A0 0 0 0 1 23.5 16.9A0 0 0 0 1 23.1 16.5A0.1 0.1 0 0 1 23.5 16.1A0.1 0.1 0 0 1 23.9 16.5ZM25.9 16.5A0 0 0 0 1 25.5 16.9A0 0 0 0 1 25.1 16.5A0.1 0.1 0 0 1 25.5 16.1A0.1 0.1 0 0 1 25.9 16.5ZM26.9 16.5A0 0 0 0 1 26.5 16.9A0 0 0 0 1 26.1 16.5A0.1 0.1 0 0 1 26.5 16.1A0.1 0.1 0 0 1 26.9 16.5ZM27.9 16.5A0 0 0 0 1 27.5 16.9A0 0 0 0 1 27.1 16.5A0.1 0.1 0 0 1 27.5 16.1A0.1 0.1 0 0 1 27.9 16.5ZM0.9 17.5A0 0 0 0 1 0.5 17.9A0 0 0 0 1 0.1 17.5A0.1 0.1 0 0 1 0.5 17.1A0.1 0.1 0 0 1 0.9 17.5ZM2.9 17.5A0 0 0 0 1 2.5 17.9A0 0 0 0 1 2.1 17.5A0.1 0.1 0 0 1 2.5 17.1A0.1 0.1 0 0 1 2.9 17.5ZM3.9 17.5A0 0 0 0 1 3.5 17.9A0 0 0 0 1 3.1 17.5A0.1 0.1 0 0 1 3.5 17.1A0.1 0.1 0 0 1 3.9 17.5ZM4.9 17.5A0 0 0 0 1 4.5 17.9A0 0 0 0 1 4.1 17.5A0.1 0.1 0 0 1 4.5 17.1A0.1 0.1 0 0 1 4.9 17.5ZM9.9 17.5A0 0 0 0 1 9.5 17.9A0 0 0 0 1 9.1 17.5A0.1 0.1 0 0 1 9.5 17.1A0.1 0.1 0 0 1 9.9 17.5ZM16.9 17.5A0 0 0 0 1 16.5 17.9A0 0 0 0 1 16.1 17.5A0.1 0.1 0 0 1 16.5 17.1A0.1 0.1 0 0 1 16.9 17.5ZM21.9 17.5A0 0 0 0 1 21.5 17.9A0 0 0 0 1 21.1 17.5A0.1 0.1 0 0 1 21.5 17.1A0.1 0.1 0 0 1 21.9 17.5ZM23.9 17.5A0 0 0 0 1 23.5 17.9A0 0 0 0 1 23.1 17.5A0.1 0.1 0 0 1 23.5 17.1A0.1 0.1 0 0 1 23.9 17.5ZM24.9 17.5A0 0 0 0 1 24.5 17.9A0 0 0 0 1 24.1 17.5A0.1 0.1 0 0 1 24.5 17.1A0.1 0.1 0 0 1 24.9 17.5ZM26.9 17.5A0 0 0 0 1 26.5 17.9A0 0 0 0 1 26.1 17.5A0.1 0.1 0 0 1 26.5 17.1A0.1 0.1 0 0 1 26.9 17.5ZM3.9 18.5A0 0 0 0 1 3.5 18.9A0 0 0 0 1 3.1 18.5A0.1 0.1 0 0 1 3.5 18.1A0.1 0.1 0 0 1 3.9 18.5ZM5.9 18.5A0 0 0 0 1 5.5 18.9A0 0 0 0 1 5.1 18.5A0.1 0.1 0 0 1 5.5 18.1A0.1 0.1 0 0 1 5.9 18.5ZM6.9 18.5A0 0 0 0 1 6.5 18.9A0 0 0 0 1 6.1 18.5A0.1 0.1 0 0 1 6.5 18.1A0.1 0.1 0 0 1 6.9 18.5ZM9.9 18.5A0 0 0 0 1 9.5 18.9A0 0 0 0 1 9.1 18.5A0.1 0.1 0 0 1 9.5 18.1A0.1 0.1 0 0 1 9.9 18.5ZM11.9 18.5A0 0 0 0 1 11.5 18.9A0 0 0 0 1 11.1 18.5A0.1 0.1 0 0 1 11.5 18.1A0.1 0.1 0 0 1 11.9 18.5ZM12.9 18.5A0 0 0 0 1 12.5 18.9A0 0 0 0 1 12.1 18.5A0.1 0.1 0 0 1 12.5 18.1A0.1 0.1 0 0 1 12.9 18.5ZM13.9 18.5A0 0 0 0 1 13.5 18.9A0 0 0 0 1 13.1 18.5A0.1 0.1 0 0 1 13.5 18.1A0.1 0.1 0 0 1 13.9 18.5ZM14.9 18.5A0 0 0 0 1 14.5 18.9A0 0 0 0 1 14.1 18.5A0.1 0.1 0 0 1 14.5 18.1A0.1 0.1 0 0 1 14.9 18.5ZM16.9 18.5A0 0 0 0 1 16.5 18.9A0 0 0 0 1 16.1 18.5A0.1 0.1 0 0 1 16.5 18.1A0.1 0.1 0 0 1 16.9 18.5ZM18.9 18.5A0 0 0 0 1 18.5 18.9A0 0 0 0 1 18.1 18.5A0.1 0.1 0 0 1 18.5 18.1A0.1 0.1 0 0 1 18.9 18.5ZM19.9 18.5A0 0 0 0 1 19.5 18.9A0 0 0 0 1 19.1 18.5A0.1 0.1 0 0 1 19.5 18.1A0.1 0.1 0 0 1 19.9 18.5ZM22.9 18.5A0 0 0 0 1 22.5 18.9A0 0 0 0 1 22.1 18.5A0.1 0.1 0 0 1 22.5 18.1A0.1 0.1 0 0 1 22.9 18.5ZM24.9 18.5A0 0 0 0 1 24.5 18.9A0 0 0 0 1 24.1 18.5A0.1 0.1 0 0 1 24.5 18.1A0.1 0.1 0 0 1 24.9 18.5ZM25.9 18.5A0 0 0 0 1 25.5 18.9A0 0 0 0 1 25.1 18.5A0.1 0.1 0 0 1 25.5 18.1A0.1 0.1 0 0 1 25.9 18.5ZM26.9 18.5A0 0 0 0 1 26.5 18.9A0 0 0 0 1 26.1 18.5A0.1 0.1 0 0 1 26.5 18.1A0.1 0.1 0 0 1 26.9 18.5ZM28.9 18.5A0 0 0 0 1 28.5 18.9A0 0 0 0 1 28.1 18.5A0.1 0.1 0 0 1 28.5 18.1A0.1 0.1 0 0 1 28.9 18.5ZM2.9 19.5A0 0 0 0 1 2.5 19.9A0 0 0 0 1 2.1 19.5A0.1 0.1 0 0 1 2.5 19.1A0.1 0.1 0 0 1 2.9 19.5ZM5.9 19.5A0 0 0 0 1 5.5 19.9A0 0 0 0 1 5.1 19.5A0.1 0.1 0 0 1 5.5 19.1A0.1 0.1 0 0 1 5.9 19.5ZM7.9 19.5A0 0 0 0 1 7.5 19.9A0 0 0 0 1 7.1 19.5A0.1 0.1 0 0 1 7.5 19.1A0.1 0.1 0 0 1 7.9 19.5ZM8.9 19.5A0 0 0 0 1 8.5 19.9A0 0 0 0 1 8.1 19.5A0.1 0.1 0 0 1 8.5 19.1A0.1 0.1 0 0 1 8.9 19.5ZM11.9 19.5A0 0 0 0 1 11.5 19.9A0 0 0 0 1 11.1 19.5A0.1 0.1 0 0 1 11.5 19.1A0.1 0.1 0 0 1 11.9 19.5ZM12.9 19.5A0 0 0 0 1 12.5 19.9A0 0 0 0 1 12.1 19.5A0.1 0.1 0 0 1 12.5 19.1A0.1 0.1 0 0 1 12.9 19.5ZM13.9 19.5A0 0 0 0 1 13.5 19.9A0 0 0 0 1 13.1 19.5A0.1 0.1 0 0 1 13.5 19.1A0.1 0.1 0 0 1 13.9 19.5ZM17.9 19.5A0 0 0 0 1 17.5 19.9A0 0 0 0 1 17.1 19.5A0.1 0.1 0 0 1 17.5 19.1A0.1 0.1 0 0 1 17.9 19.5ZM18.9 19.5A0 0 0 0 1 18.5 19.9A0 0 0 0 1 18.1 19.5A0.1 0.1 0 0 1 18.5 19.1A0.1 0.1 0 0 1 18.9 19.5ZM19.9 19.5A0 0 0 0 1 19.5 19.9A0 0 0 0 1 19.1 19.5A0.1 0.1 0 0 1 19.5 19.1A0.1 0.1 0 0 1 19.9 19.5ZM20.9 19.5A0 0 0 0 1 20.5 19.9A0 0 0 0 1 20.1 19.5A0.1 0.1 0 0 1 20.5 19.1A0.1 0.1 0 0 1 20.9 19.5ZM21.9 19.5A0 0 0 0 1 21.5 19.9A0 0 0 0 1 21.1 19.5A0.1 0.1 0 0 1 21.5 19.1A0.1 0.1 0 0 1 21.9 19.5ZM27.9 19.5A0 0 0 0 1 27.5 19.9A0 0 0 0 1 27.1 19.5A0.1 0.1 0 0 1 27.5 19.1A0.1 0.1 0 0 1 27.9 19.5ZM0.9 20.5A0 0 0 0 1 0.5 20.9A0 0 0 0 1 0.1 20.5A0.1 0.1 0 0 1 0.5 20.1A0.1 0.1 0 0 1 0.9 20.5ZM1.9 20.5A0 0 0 0 1 1.5 20.9A0 0 0 0 1 1.1 20.5A0.1 0.1 0 0 1 1.5 20.1A0.1 0.1 0 0 1 1.9 20.5ZM3.9 20.5A0 0 0 0 1 3.5 20.9A0 0 0 0 1 3.1 20.5A0.1 0.1 0 0 1 3.5 20.1A0.1 0.1 0 0 1 3.9 20.5ZM4.9 20.5A0 0 0 0 1 4.5 20.9A0 0 0 0 1 4.1 20.5A0.1 0.1 0 0 1 4.5 20.1A0.1 0.1 0 0 1 4.9 20.5ZM6.9 20.5A0 0 0 0 1 6.5 20.9A0 0 0 0 1 6.1 20.5A0.1 0.1 0 0 1 6.5 20.1A0.1 0.1 0 0 1 6.9 20.5ZM7.9 20.5A0 0 0 0 1 7.5 20.9A0 0 0 0 1 7.1 20.5A0.1 0.1 0 0 1 7.5 20.1A0.1 0.1 0 0 1 7.9 20.5ZM10.9 20.5A0 0 0 0 1 10.5 20.9A0 0 0 0 1 10.1 20.5A0.1 0.1 0 0 1 10.5 20.1A0.1 0.1 0 0 1 10.9 20.5ZM13.9 20.5A0 0 0 0 1 13.5 20.9A0 0 0 0 1 13.1 20.5A0.1 0.1 0 0 1 13.5 20.1A0.1 0.1 0 0 1 13.9 20.5ZM16.9 20.5A0 0 0 0 1 16.5 20.9A0 0 0 0 1 16.1 20.5A0.1 0.1 0 0 1 16.5 20.1A0.1 0.1 0 0 1 16.9 20.5ZM19.9 20.5A0 0 0 0 1 19.5 20.9A0 0 0 0 1 19.1 20.5A0.1 0.1 0 0 1 19.5 20.1A0.1 0.1 0 0 1 19.9 20.5ZM20.9 20.5A0 0 0 0 1 20.5 20.9A0 0 0 0 1 20.1 20.5A0.1 0.1 0 0 1 20.5 20.1A0.1 0.1 0 0 1 20.9 20.5ZM21.9 20.5A0 0 0 0 1 21.5 20.9A0 0 0 0 1 21.1 20.5A0.1 0.1 0 0 1 21.5 20.1A0.1 0.1 0 0 1 21.9 20.5ZM22.9 20.5A0 0 0 0 1 22.5 20.9A0 0 0 0 1 22.1 20.5A0.1 0.1 0 0 1 22.5 20.1A0.1 0.1 0 0 1 22.9 20.5ZM23.9 20.5A0 0 0 0 1 23.5 20.9A0 0 0 0 1 23.1 20.5A0.1 0.1 0 0 1 23.5 20.1A0.1 0.1 0 0 1 23.9 20.5ZM24.9 20.5A0 0 0 0 1 24.5 20.9A0 0 0 0 1 24.1 20.5A0.1 0.1 0 0 1 24.5 20.1A0.1 0.1 0 0 1 24.9 20.5ZM8.9 21.5A0 0 0 0 1 8.5 21.9A0 0 0 0 1 8.1 21.5A0.1 0.1 0 0 1 8.5 21.1A0.1 0.1 0 0 1 8.9 21.5ZM9.9 21.5A0 0 0 0 1 9.5 21.9A0 0 0 0 1 9.1 21.5A0.1 0.1 0 0 1 9.5 21.1A0.1 0.1 0 0 1 9.9 21.5ZM11.9 21.5A0 0 0 0 1 11.5 21.9A0 0 0 0 1 11.1 21.5A0.1 0.1 0 0 1 11.5 21.1A0.1 0.1 0 0 1 11.9 21.5ZM12.9 21.5A0 0 0 0 1 12.5 21.9A0 0 0 0 1 12.1 21.5A0.1 0.1 0 0 1 12.5 21.1A0.1 0.1 0 0 1 12.9 21.5ZM13.9 21.5A0 0 0 0 1 13.5 21.9A0 0 0 0 1 13.1 21.5A0.1 0.1 0 0 1 13.5 21.1A0.1 0.1 0 0 1 13.9 21.5ZM14.9 21.5A0 0 0 0 1 14.5 21.9A0 0 0 0 1 14.1 21.5A0.1 0.1 0 0 1 14.5 21.1A0.1 0.1 0 0 1 14.9 21.5ZM15.9 21.5A0 0 0 0 1 15.5 21.9A0 0 0 0 1 15.1 21.5A0.1 0.1 0 0 1 15.5 21.1A0.1 0.1 0 0 1 15.9 21.5ZM16.9 21.5A0 0 0 0 1 16.5 21.9A0 0 0 0 1 16.1 21.5A0.1 0.1 0 0 1 16.5 21.1A0.1 0.1 0 0 1 16.9 21.5ZM20.9 21.5A0 0 0 0 1 20.5 21.9A0 0 0 0 1 20.1 21.5A0.1 0.1 0 0 1 20.5 21.1A0.1 0.1 0 0 1 20.9 21.5ZM24.9 21.5A0 0 0 0 1 24.5 21.9A0 0 0 0 1 24.1 21.5A0.1 0.1 0 0 1 24.5 21.1A0.1 0.1 0 0 1 24.9 21.5ZM25.9 21.5A0 0 0 0 1 25.5 21.9A0 0 0 0 1 25.1 21.5A0.1 0.1 0 0 1 25.5 21.1A0.1 0.1 0 0 1 25.9 21.5ZM26.9 21.5A0 0 0 0 1 26.5 21.9A0 0 0 0 1 26.1 21.5A0.1 0.1 0 0 1 26.5 21.1A0.1 0.1 0 0 1 26.9 21.5ZM8.9 22.5A0 0 0 0 1 8.5 22.9A0 0 0 0 1 8.1 22.5A0.1 0.1 0 0 1 8.5 22.1A0.1 0.1 0 0 1 8.9 22.5ZM9.9 22.5A0 0 0 0 1 9.5 22.9A0 0 0 0 1 9.1 22.5A0.1 0.1 0 0 1 9.5 22.1A0.1 0.1 0 0 1 9.9 22.5ZM10.9 22.5A0 0 0 0 1 10.5 22.9A0 0 0 0 1 10.1 22.5A0.1 0.1 0 0 1 10.5 22.1A0.1 0.1 0 0 1 10.9 22.5ZM11.9 22.5A0 0 0 0 1 11.5 22.9A0 0 0 0 1 11.1 22.5A0.1 0.1 0 0 1 11.5 22.1A0.1 0.1 0 0 1 11.9 22.5ZM12.9 22.5A0 0 0 0 1 12.5 22.9A0 0 0 0 1 12.1 22.5A0.1 0.1 0 0 1 12.5 22.1A0.1 0.1 0 0 1 12.9 22.5ZM16.9 22.5A0 0 0 0 1 16.5 22.9A0 0 0 0 1 16.1 22.5A0.1 0.1 0 0 1 16.5 22.1A0.1 0.1 0 0 1 16.9 22.5ZM18.9 22.5A0 0 0 0 1 18.5 22.9A0 0 0 0 1 18.1 22.5A0.1 0.1 0 0 1 18.5 22.1A0.1 0.1 0 0 1 18.9 22.5ZM20.9 22.5A0 0 0 0 1 20.5 22.9A0 0 0 0 1 20.1 22.5A0.1 0.1 0 0 1 20.5 22.1A0.1 0.1 0 0 1 20.9 22.5ZM22.9 22.5A0 0 0 0 1 22.5 22.9A0 0 0 0 1 22.1 22.5A0.1 0.1 0 0 1 22.5 22.1A0.1 0.1 0 0 1 22.9 22.5ZM24.9 22.5A0 0 0 0 1 24.5 22.9A0 0 0 0 1 24.1 22.5A0.1 0.1 0 0 1 24.5 22.1A0.1 0.1 0 0 1 24.9 22.5ZM25.9 22.5A0 0 0 0 1 25.5 22.9A0 0 0 0 1 25.1 22.5A0.1 0.1 0 0 1 25.5 22.1A0.1 0.1 0 0 1 25.9 22.5ZM26.9 22.5A0 0 0 0 1 26.5 22.9A0 0 0 0 1 26.1 22.5A0.1 0.1 0 0 1 26.5 22.1A0.1 0.1 0 0 1 26.9 22.5ZM28.9 22.5A0 0 0 0 1 28.5 22.9A0 0 0 0 1 28.1 22.5A0.1 0.1 0 0 1 28.5 22.1A0.1 0.1 0 0 1 28.9 22.5ZM9.9 23.5A0 0 0 0 1 9.5 23.9A0 0 0 0 1 9.1 23.5A0.1 0.1 0 0 1 9.5 23.1A0.1 0.1 0 0 1 9.9 23.5ZM11.9 23.5A0 0 0 0 1 11.5 23.9A0 0 0 0 1 11.1 23.5A0.1 0.1 0 0 1 11.5 23.1A0.1 0.1 0 0 1 11.9 23.5ZM14.9 23.5A0 0 0 0 1 14.5 23.9A0 0 0 0 1 14.1 23.5A0.1 0.1 0 0 1 14.5 23.1A0.1 0.1 0 0 1 14.9 23.5ZM17.9 23.5A0 0 0 0 1 17.5 23.9A0 0 0 0 1 17.1 23.5A0.1 0.1 0 0 1 17.5 23.1A0.1 0.1 0 0 1 17.9 23.5ZM20.9 23.5A0 0 0 0 1 20.5 23.9A0 0 0 0 1 20.1 23.5A0.1 0.1 0 0 1 20.5 23.1A0.1 0.1 0 0 1 20.9 23.5ZM24.9 23.5A0 0 0 0 1 24.5 23.9A0 0 0 0 1 24.1 23.5A0.1 0.1 0 0 1 24.5 23.1A0.1 0.1 0 0 1 24.9 23.5ZM26.9 23.5A0 0 0 0 1 26.5 23.9A0 0 0 0 1 26.1 23.5A0.1 0.1 0 0 1 26.5 23.1A0.1 0.1 0 0 1 26.9 23.5ZM27.9 23.5A0 0 0 0 1 27.5 23.9A0 0 0 0 1 27.1 23.5A0.1 0.1 0 0 1 27.5 23.1A0.1 0.1 0 0 1 27.9 23.5ZM8.9 24.5A0 0 0 0 1 8.5 24.9A0 0 0 0 1 8.1 24.5A0.1 0.1 0 0 1 8.5 24.1A0.1 0.1 0 0 1 8.9 24.5ZM9.9 24.5A0 0 0 0 1 9.5 24.9A0 0 0 0 1 9.1 24.5A0.1 0.1 0 0 1 9.5 24.1A0.1 0.1 0 0 1 9.9 24.5ZM10.9 24.5A0 0 0 0 1 10.5 24.9A0 0 0 0 1 10.1 24.5A0.1 0.1 0 0 1 10.5 24.1A0.1 0.1 0 0 1 10.9 24.5ZM11.9 24.5A0 0 0 0 1 11.5 24.9A0 0 0 0 1 11.1 24.5A0.1 0.1 0 0 1 11.5 24.1A0.1 0.1 0 0 1 11.9 24.5ZM12.9 24.5A0 0 0 0 1 12.5 24.9A0 0 0 0 1 12.1 24.5A0.1 0.1 0 0 1 12.5 24.1A0.1 0.1 0 0 1 12.9 24.5ZM13.9 24.5A0 0 0 0 1 13.5 24.9A0 0 0 0 1 13.1 24.5A0.1 0.1 0 0 1 13.5 24.1A0.1 0.1 0 0 1 13.9 24.5ZM14.9 24.5A0 0 0 0 1 14.5 24.9A0 0 0 0 1 14.1 24.5A0.1 0.1 0 0 1 14.5 24.1A0.1 0.1 0 0 1 14.9 24.5ZM16.9 24.5A0 0 0 0 1 16.5 24.9A0 0 0 0 1 16.1 24.5A0.1 0.1 0 0 1 16.5 24.1A0.1 0.1 0 0 1 16.9 24.5ZM17.9 24.5A0 0 0 0 1 17.5 24.9A0 0 0 0 1 17.1 24.5A0.1 0.1 0 0 1 17.5 24.1A0.1 0.1 0 0 1 17.9 24.5ZM20.9 24.5A0 0 0 0 1 20.5 24.9A0 0 0 0 1 20.1 24.5A0.1 0.1 0 0 1 20.5 24.1A0.1 0.1 0 0 1 20.9 24.5ZM21.9 24.5A0 0 0 0 1 21.5 24.9A0 0 0 0 1 21.1 24.5A0.1 0.1 0 0 1 21.5 24.1A0.1 0.1 0 0 1 21.9 24.5ZM22.9 24.5A0 0 0 0 1 22.5 24.9A0 0 0 0 1 22.1 24.5A0.1 0.1 0 0 1 22.5 24.1A0.1 0.1 0 0 1 22.9 24.5ZM23.9 24.5A0 0 0 0 1 23.5 24.9A0 0 0 0 1 23.1 24.5A0.1 0.1 0 0 1 23.5 24.1A0.1 0.1 0 0 1 23.9 24.5ZM24.9 24.5A0 0 0 0 1 24.5 24.9A0 0 0 0 1 24.1 24.5A0.1 0.1 0 0 1 24.5 24.1A0.1 0.1 0 0 1 24.9 24.5ZM25.9 24.5A0 0 0 0 1 25.5 24.9A0 0 0 0 1 25.1 24.5A0.1 0.1 0 0 1 25.5 24.1A0.1 0.1 0 0 1 25.9 24.5ZM28.9 24.5A0 0 0 0 1 28.5 24.9A0 0 0 0 1 28.1 24.5A0.1 0.1 0 0 1 28.5 24.1A0.1 0.1 0 0 1 28.9 24.5ZM10.9 25.5A0 0 0 0 1 10.5 25.9A0 0 0 0 1 10.1 25.5A0.1 0.1 0 0 1 10.5 25.1A0.1 0.1 0 0 1 10.9 25.5ZM15.9 25.5A0 0 0 0 1 15.5 25.9A0 0 0 0 1 15.1 25.5A0.1 0.1 0 0 1 15.5 25.1A0.1 0.1 0 0 1 15.9 25.5ZM19.9 25.5A0 0 0 0 1 19.5 25.9A0 0 0 0 1 19.1 25.5A0.1 0.1 0 0 1 19.5 25.1A0.1 0.1 0 0 1 19.9 25.5ZM21.9 25.5A0 0 0 0 1 21.5 25.9A0 0 0 0 1 21.1 25.5A0.1 0.1 0 0 1 21.5 25.1A0.1 0.1 0 0 1 21.9 25.5ZM23.9 25.5A0 0 0 0 1 23.5 25.9A0 0 0 0 1 23.1 25.5A0.1 0.1 0 0 1 23.5 25.1A0.1 0.1 0 0 1 23.9 25.5ZM25.9 25.5A0 0 0 0 1 25.5 25.9A0 0 0 0 1 25.1 25.5A0.1 0.1 0 0 1 25.5 25.1A0.1 0.1 0 0 1 25.9 25.5ZM26.9 25.5A0 0 0 0 1 26.5 25.9A0 0 0 0 1 26.1 25.5A0.1 0.1 0 0 1 26.5 25.1A0.1 0.1 0 0 1 26.9 25.5ZM27.9 25.5A0 0 0 0 1 27.5 25.9A0 0 0 0 1 27.1 25.5A0.1 0.1 0 0 1 27.5 25.1A0.1 0.1 0 0 1 27.9 25.5ZM10.9 26.5A0 0 0 0 1 10.5 26.9A0 0 0 0 1 10.1 26.5A0.1 0.1 0 0 1 10.5 26.1A0.1 0.1 0 0 1 10.9 26.5ZM11.9 26.5A0 0 0 0 1 11.5 26.9A0 0 0 0 1 11.1 26.5A0.1 0.1 0 0 1 11.5 26.1A0.1 0.1 0 0 1 11.9 26.5ZM12.9 26.5A0 0 0 0 1 12.5 26.9A0 0 0 0 1 12.1 26.5A0.1 0.1 0 0 1 12.5 26.1A0.1 0.1 0 0 1 12.9 26.5ZM14.9 26.5A0 0 0 0 1 14.5 26.9A0 0 0 0 1 14.1 26.5A0.1 0.1 0 0 1 14.5 26.1A0.1 0.1 0 0 1 14.9 26.5ZM15.9 26.5A0 0 0 0 1 15.5 26.9A0 0 0 0 1 15.1 26.5A0.1 0.1 0 0 1 15.5 26.1A0.1 0.1 0 0 1 15.9 26.5ZM16.9 26.5A0 0 0 0 1 16.5 26.9A0 0 0 0 1 16.1 26.5A0.1 0.1 0 0 1 16.5 26.1A0.1 0.1 0 0 1 16.9 26.5ZM19.9 26.5A0 0 0 0 1 19.5 26.9A0 0 0 0 1 19.1 26.5A0.1 0.1 0 0 1 19.5 26.1A0.1 0.1 0 0 1 19.9 26.5ZM21.9 26.5A0 0 0 0 1 21.5 26.9A0 0 0 0 1 21.1 26.5A0.1 0.1 0 0 1 21.5 26.1A0.1 0.1 0 0 1 21.9 26.5ZM24.9 26.5A0 0 0 0 1 24.5 26.9A0 0 0 0 1 24.1 26.5A0.1 0.1 0 0 1 24.5 26.1A0.1 0.1 0 0 1 24.9 26.5ZM26.9 26.5A0 0 0 0 1 26.5 26.9A0 0 0 0 1 26.1 26.5A0.1 0.1 0 0 1 26.5 26.1A0.1 0.1 0 0 1 26.9 26.5ZM27.9 26.5A0 0 0 0 1 27.5 26.9A0 0 0 0 1 27.1 26.5A0.1 0.1 0 0 1 27.5 26.1A0.1 0.1 0 0 1 27.9 26.5ZM28.9 26.5A0 0 0 0 1 28.5 26.9A0 0 0 0 1 28.1 26.5A0.1 0.1 0 0 1 28.5 26.1A0.1 0.1 0 0 1 28.9 26.5ZM10.9 27.5A0 0 0 0 1 10.5 27.9A0 0 0 0 1 10.1 27.5A0.1 0.1 0 0 1 10.5 27.1A0.1 0.1 0 0 1 10.9 27.5ZM11.9 27.5A0 0 0 0 1 11.5 27.9A0 0 0 0 1 11.1 27.5A0.1 0.1 0 0 1 11.5 27.1A0.1 0.1 0 0 1 11.9 27.5ZM12.9 27.5A0 0 0 0 1 12.5 27.9A0 0 0 0 1 12.1 27.5A0.1 0.1 0 0 1 12.5 27.1A0.1 0.1 0 0 1 12.9 27.5ZM13.9 27.5A0 0 0 0 1 13.5 27.9A0 0 0 0 1 13.1 27.5A0.1 0.1 0 0 1 13.5 27.1A0.1 0.1 0 0 1 13.9 27.5ZM20.9 27.5A0 0 0 0 1 20.5 27.9A0 0 0 0 1 20.1 27.5A0.1 0.1 0 0 1 20.5 27.1A0.1 0.1 0 0 1 20.9 27.5ZM22.9 27.5A0 0 0 0 1 22.5 27.9A0 0 0 0 1 22.1 27.5A0.1 0.1 0 0 1 22.5 27.1A0.1 0.1 0 0 1 22.9 27.5ZM23.9 27.5A0 0 0 0 1 23.5 27.9A0 0 0 0 1 23.1 27.5A0.1 0.1 0 0 1 23.5 27.1A0.1 0.1 0 0 1 23.9 27.5ZM24.9 27.5A0 0 0 0 1 24.5 27.9A0 0 0 0 1 24.1 27.5A0.1 0.1 0 0 1 24.5 27.1A0.1 0.1 0 0 1 24.9 27.5ZM25.9 27.5A0 0 0 0 1 25.5 27.9A0 0 0 0 1 25.1 27.5A0.1 0.1 0 0 1 25.5 27.1A0.1 0.1 0 0 1 25.9 27.5ZM26.9 27.5A0 0 0 0 1 26.5 27.9A0 0 0 0 1 26.1 27.5A0.1 0.1 0 0 1 26.5 27.1A0.1 0.1 0 0 1 26.9 27.5ZM8.9 28.5A0 0 0 0 1 8.5 28.9A0 0 0 0 1 8.1 28.5A0.1 0.1 0 0 1 8.5 28.1A0.1 0.1 0 0 1 8.9 28.5ZM13.9 28.5A0 0 0 0 1 13.5 28.9A0 0 0 0 1 13.1 28.5A0.1 0.1 0 0 1 13.5 28.1A0.1 0.1 0 0 1 13.9 28.5ZM17.9 28.5A0 0 0 0 1 17.5 28.9A0 0 0 0 1 17.1 28.5A0.1 0.1 0 0 1 17.5 28.1A0.1 0.1 0 0 1 17.9 28.5ZM20.9 28.5A0 0 0 0 1 20.5 28.9A0 0 0 0 1 20.1 28.5A0.1 0.1 0 0 1 20.5 28.1A0.1 0.1 0 0 1 20.9 28.5ZM22.9 28.5A0 0 0 0 1 22.5 28.9A0 0 0 0 1 22.1 28.5A0.1 0.1 0 0 1 22.5 28.1A0.1 0.1 0 0 1 22.9 28.5ZM24.9 28.5A0 0 0 0 1 24.5 28.9A0 0 0 0 1 24.1 28.5A0.1 0.1 0 0 1 24.5 28.1A0.1 0.1 0 0 1 24.9 28.5ZM27.9 28.5A0 0 0 0 1 27.5 28.9A0 0 0 0 1 27.1 28.5A0.1 0.1 0 0 1 27.5 28.1A0.1 0.1 0 0 1 27.9 28.5ZM0 3.5C0 0 0 0 3.5 0M0 3.5C0 7 0 7 3.5 7M7 3.5C7 0 7 0 3.5 0M7 3.5L7 3.5L3.5 7L7 7ZA0 0 0 0 1 3.5 7A0 0 0 0 1 0 3.5A0 0 0 0 1 3.5 0A0 0 0 0 1 7 3.5M1 3.5C1 1 1 1 3.5 1M1 3.5C1 6 1 6 3.5 6M6 3.5C6 1 6 1 3.5 1M6 3.5L6 3.5L3.5 6L6 6ZA0 0 0 0 1 3.5 6A0 0 0 0 1 1 3.5A0 0 0 0 1 3.5 1A0 0 0 0 1 6 3.5M5 3.5A0 0 0 0 1 3.5 5A0 0 0 0 1 2 3.5A0 0 0 0 1 3.5 2A0 0 0 0 1 5 3.5ZM22 3.5C22 0 22 0 25.5 0M22 3.5C22 7 22 7 25.5 7M29 3.5C29 0 29 0 25.5 0M29 3.5L29 3.5L25.5 7L29 7ZA0 0 0 0 1 25.5 7A0 0 0 0 1 22 3.5A0 0 0 0 1 25.5 0A0 0 0 0 1 29 3.5M23 3.5C23 1 23 1 25.5 1M23 3.5C23 6 23 6 25.5 6M28 3.5C28 1 28 1 25.5 1M28 3.5L28 3.5L25.5 6L28 6ZA0 0 0 0 1 25.5 6A0 0 0 0 1 23 3.5A0 0 0 0 1 25.5 1A0 0 0 0 1 28 3.5M27 3.5A0 0 0 0 1 25.5 5A0 0 0 0 1 24 3.5A0 0 0 0 1 25.5 2A0 0 0 0 1 27 3.5ZM0 25.5C0 22 0 22 3.5 22M0 25.5C0 29 0 29 3.5 29M7 25.5C7 22 7 22 3.5 22M7 25.5L7 25.5L3.5 29L7 29ZA0 0 0 0 1 3.5 29A0 0 0 0 1 0 25.5A0 0 0 0 1 3.5 22A0 0 0 0 1 7 25.5M1 25.5C1 23 1 23 3.5 23M1 25.5C1 28 1 28 3.5 28M6 25.5C6 23 6 23 3.5 23M6 25.5L6 25.5L3.5 28L6 28ZA0 0 0 0 1 3.5 28A0 0 0 0 1 1 25.5A0 0 0 0 1 3.5 23A0 0 0 0 1 6 25.5M5 25.5A0 0 0 0 1 3.5 27A0 0 0 0 1 2 25.5A0 0 0 0 1 3.5 24A0 0 0 0 1 5 25.5Z" style="fill-rule: evenodd; fill: #f2ff58" /></g></g></svg></g><svg><text x="50%" y="8.5%" style="dominant-baseline: middle; text-anchor: middle; font-weight: bold; font-size: 33.33px; fill: #426859; font-family: Verdana, sans-serif">Affinity Media Uganda</text></svg></svg>